<svg xmlns="http://www.w3.org/2000/svg" width="32" height="41"><path d="M7.027 3.676c.2.09.356.215.45.414.027.086.035.144.027.234q-.001.047.004.094c-.008.21-.106.371-.203.55q-.129.25-.246.497t-.239.488a5 5 0 0 0-.218.484H6.55l-.008.063a1.2 1.2 0 0 1-.074.234l-.035.086-.036.086-.07.184a2 2 0 0 1-.055.14h-.05q-.001.038-.008.075a1.2 1.2 0 0 1-.078.285l-.035.094c-.016.035-.016.035-.028.07h-.05q-.004.041-.008.082a1.6 1.6 0 0 1-.098.355 15 15 0 0 0-.262.856c-.027.105-.058.215-.086.32-.004.028-.004.028-.011.055q-.06.234-.114.469c-.008.043-.008.043-.02.09-.105.464-.179.93-.237 1.402-.008.039-.008.039-.012.078-.067.531-.086 1.05-.086 1.586v.094c0 .445.012.879.07 1.316.016.117.02.23.027.348a1 1 0 0 0 .06.23c.007.059.019.117.026.18 0 .023 0 .023.004.05q.019.135.032.27c.007.07.02.13.039.195l.011.051c.012.047.028.09.043.137.051.137.078.277.106.422.023.113.058.207.113.308q.026.053.05.106.012.03.028.058a13.794 13.794 0 0 0 1.078 1.996q.02.036.043.07.258.39.551.755c.031.047.031.047.031.097h.051c.043.047.043.047.094.11l.047.058c.035.055.035.055.035.106h.05c.04.039.075.086.11.129q.112.14.242.27.046.053.098.105c.105.117.219.23.332.344.016.015.031.035.05.05q.148.147.302.282c.058.046.113.097.167.144.582.52 1.247.965 1.926 1.352q.122.069.239.156l.097.05q.034.015.063.028.032.018.062.035.034.013.063.031.093.042.191.079c.02-.032.04-.059.059-.09a1815.054 1815.054 0 0 1 .066-.11q.02-.03.04-.058c.073-.137.054-.309.019-.457-.102-.32-.332-.582-.54-.84a5 5 0 0 1-.574-.93c-.015-.035-.035-.066-.05-.101l-.028-.051c-.015-.035-.035-.07-.05-.102q-.08-.157-.149-.316l-.035-.082-.074-.176q-.037-.085-.075-.172a2.2 2.2 0 0 1-.18-.562c-.003-.078-.003-.078-.046-.11-.098-.101-.121-.285-.121-.418q.005-.035.004-.07H9.84l-.012-.078c-.012-.094-.012-.094-.039-.18a1.5 1.5 0 0 1-.074-.488h-.027c0-.02-.004-.04-.004-.059l-.008-.078c0-.023-.004-.05-.004-.074-.004-.062-.004-.062-.035-.09-.004-.086-.004-.086 0-.172l.027-.023q-.029-.017-.05-.027v-.223h.05a1 1 0 0 1-.039-.067c-.062-.14-.055-.304-.04-.457.04-.082.04-.082.08-.148h-.052q-.005-.051-.004-.11v-.058c.004-.055.004-.055.055-.105h-.027v-.149l.05-.023v-.137q0-.036-.003-.074c.004-.063.004-.063.03-.09.005-.047.013-.094.016-.14.051-.395.16-.852.48-1.114.208-.156.411-.156.657-.137.078.024.137.051.2.102.042.027.042.027.081.055.102.097.188.199.204.34-.004.019-.004.035-.008.05h.05q.024.104.036.207c.027.156.078.309.125.457.035.114.07.223.101.336.078.297.176.602.313.883.027.055.054.117.078.176.129.328.281.636.453.949.012.027.012.027.027.055q.295.532.676 1.011.013.025.031.043c.125.16.25.32.391.47.027.034.027.034.027.085l.078.023a.5.5 0 0 1 .07.082c.15.172.31.325.47.481q.092.088.168.187l.054.067c.04.055.04.055.04.105h.05a.6.6 0 0 1 .074.11l.047.078c.016.02.016.02.027.039q.044.07.09.14a6 6 0 0 1 .383.688c.215.445.414.938.485 1.43l.023.078c.066.238.082.469.074.715h.05v.398h.028v.422h-.05q.01.04.023.074.005.087.004.168.001.043-.004.09v.066h-.05l.003.075v.195c-.004.078-.004.078-.027.105l-.012.22q-.004.061-.008.124v.055c-.004.047-.004.047-.031.098l-.012.105a.7.7 0 0 1-.062.242l-.012.074c-.016.118-.047.23-.078.348q-.01.031-.02.063-.018.082-.043.16h-.05q.001.036-.004.066c-.04.277-.196.535-.32.781q-.053.101-.098.196c-.164.324-.38.625-.578.925-.086.13-.168.262-.254.391q-.048.073-.094.145c-.133.203-.258.418-.383.629l-.035.062a11 11 0 0 0-.48.965 5.4 5.4 0 0 0-.32.918q-.018.07-.04.14-.034.125-.062.25a1 1 0 0 0-.02.086c-.016.055-.027.114-.043.172q-.007.042-.02.082a1 1 0 0 1-.015.075c-.008.027-.008.027-.02.058q-.021.012-.05.024c.004.039.004.039.004.074-.004.097-.016.18-.04.273a2 2 0 0 0-.054.293c-.008.078-.008.078-.035.106l-.012.105c-.035.414-.035.414-.086.465v.14c-.004.102-.016.204-.027.31l-.012.136-.012.11h-.05l.023.05c.015.211 0 .434-.024.645l-.027.027v.11q-.001.034.004.07v.16c.004.054.004.113.004.168q.004.129.008.258c.004.265.011.527.031.793.023.343.023.343-.02.43h.051c0 .027-.004.054-.004.081-.004.086-.004.086.028.14.015.102.023.208.03.31q.002.044.009.09.001.04.008.081c0 .028.003.051.003.078 0 .063 0 .063-.05.114-.059.004-.059.004-.125.004h-.07c-.055-.004-.055-.004-.083-.032h-.199l-.023-.023-.149-.012a2 2 0 0 1-.48-.09l-.051-.011a2.46 2.46 0 0 1-1.492-1.098 3.4 3.4 0 0 1-.434-1.195q-.004-.03-.008-.067l-.011-.07q-.004-.035-.008-.07a2 2 0 0 1-.02-.133l-.023-.16c-.012-.078-.012-.078-.012-.153l-.05-.023c-.016-.047-.016-.047-.032-.11q-.005-.03-.015-.066-.005-.035-.016-.07l-.016-.07a7 7 0 0 1-.082-.399c-.015-.059-.039-.101-.066-.156l-.024-.172a4 4 0 0 0-.062-.215c-.012-.039-.024-.074-.035-.113-.008-.024-.008-.024-.012-.047a3 3 0 0 1-.078-.395c-.012-.074-.012-.074-.027-.132-.012-.043-.012-.043-.012-.118L8.582 33c-.012-.05-.012-.05-.023-.117a6 6 0 0 0-.051-.223 1.2 1.2 0 0 1-.043-.262.2.2 0 0 0-.008-.046q-.023-.012-.05-.024c-.012-.047-.012-.047-.024-.105l-.012-.063-.012-.055-.015-.05c-.02-.078-.031-.16-.051-.239a.6.6 0 0 0-.059-.175c-.039-.082-.058-.168-.082-.254l-.011-.051a1 1 0 0 1-.036-.3q-.021-.013-.05-.024l-.035-.121c-.004-.028-.012-.051-.02-.078q-.007-.035-.02-.075-.056-.216-.125-.433a7 7 0 0 1-.105-.383l-.07-.258a3 3 0 0 1-.09-.367.46.46 0 0 0-.086-.2L7.48 29q-.011-.033-.02-.066-.012-.036-.019-.07l-.023-.071a1 1 0 0 1-.016-.191q-.022-.011-.047-.028c-.02-.054-.02-.054-.039-.12q-.008-.041-.02-.075-.03-.129-.054-.258c-.012-.047-.012-.047-.062-.094-.02-.043-.02-.043-.032-.093q-.008-.028-.02-.055-.004-.03-.015-.059a1 1 0 0 1-.031-.117.2.2 0 0 1-.016-.05c-.027-.094-.062-.184-.093-.278q-.019-.046-.032-.094c-.02-.05-.035-.101-.054-.148-.012-.031-.02-.067-.032-.098-.015-.047-.035-.094-.05-.14-.024-.067-.043-.133-.067-.2a2 2 0 0 0-.183-.379 11 11 0 0 1-.25-.464c-.043-.086-.094-.172-.14-.254a6 6 0 0 1-.228-.426c-.058-.113-.125-.223-.187-.332-.055-.09-.098-.184-.145-.274q-.086-.163-.18-.328c-.09-.168-.183-.332-.269-.5a30 30 0 0 0-.336-.605q-.23-.403-.437-.817l-.176-.336q-.016-.03-.031-.054-.078-.147-.16-.293c-.079-.137-.145-.281-.211-.422-.07-.148-.14-.29-.22-.43a12 12 0 0 1-.272-.547q-.046-.099-.09-.199c-.563-1.21-.563-1.21-.746-1.773l-.047-.117a.4.4 0 0 1-.02-.18h-.05a16 16 0 0 1-.188-.613c-.016-.07-.04-.137-.063-.207-.07-.22-.07-.22-.09-.325a1 1 0 0 0-.05-.187.5.5 0 0 1-.035-.235 1 1 0 0 0-.055-.195.7.7 0 0 1-.024-.2c-.007-.007-.015-.019-.023-.026v-.125l-.023-.122a3 3 0 0 1-.028-.175 4.498 4.498 0 0 1-.074-.969l-.05-.024v-.136q.001-.035-.005-.074c.004-.063.004-.063.028-.114h-.047v-.324h.047v-.047h-.047c-.031-.113-.031-.222-.031-.34v-.574c0-.105.011-.203.03-.305v-.296h.048l-.024-.079v-.245h.051v-.2q-.005-.024-.004-.055c0-.046.004-.097.004-.144l.023-.024v-.074c0-.074 0-.074.028-.101v-.145c0-.078.012-.152.023-.226h.051l-.016-.055a.37.37 0 0 1 .016-.195l.05-.024q.014-.07.02-.14c.012-.137.04-.274.067-.41.008-.032.011-.063.02-.09a.7.7 0 0 1 .07-.18l.035-.156q.03-.125.066-.25l.024-.09c.023-.074.023-.074.074-.153.012-.046.012-.046.02-.097.027-.117.07-.215.12-.32q.06-.128.106-.254c.074-.188.164-.368.258-.543q.036-.077.074-.153c.223-.453.496-.89.8-1.297q.06-.075.114-.152c.11-.152.215-.297.344-.434q.071-.08.136-.168c.211-.261.457-.503.696-.742.015-.015.035-.031.05-.05.016-.012.028-.028.044-.043.015-.012.027-.028.043-.04.03-.027.03-.027.082-.027.007-.023.007-.023.02-.047a.6.6 0 0 1 .136-.152l.07-.059q.037-.036.074-.066l.043-.035c.184-.16.367-.313.559-.461q.057-.044.11-.086.169-.134.343-.262l.043-.035c.16-.121.285-.184.484-.117m.403.449.023.05Zm0 .422.023.05ZM5.824 8.273l.024.051Zm-.176.575.024.047Zm-3.414.547.024.046Zm3.239.097.023.051Zm-3.391.399.027.046Zm3.215.37.023.075Zm-.152.97.027.101Zm-.024.101v.172h.024v-.172zm-.101 1.762.023.074Zm.101 1.441v.176h.024v-.176zm.024.2.027.074Zm4.742.074.027.05Zm-.024.074.024.05Zm-8.133.027v.125h.028v-.125zm9.766.371.024.074Zm-9.613.723.023.047Zm0 .074.023.047Zm3.59.297.023.05Zm-3.391.547.027.05Zm7.605.473.028.05Zm0 .097.028.051Zm-7.43.028.028.046Zm.177.52.027.05Zm7.629.968.027.05Zm5.523 3.48.023.051Zm.2 1.293.027.098Zm0 .696.027.074Zm-.2 1.539.023.074Zm-8.383 1.937.024.074Zm.55 1.84.028.05Zm.177.621.027.05Zm4.996.895.023.05Zm-.176.597.023.051Zm-.352 1.59.024.098Zm-.023.2.023.05Zm-3.566.023.027.074Zm.175.695.028.074Zm3.262.45.027.074Zm-.023.097.023.05Zm-.024.375v1.215h.024v-1.215zm-2.863.668.027.074Zm2.887.574v.297h.023v-.297zm0 .32.023.051Zm.023.075.027.078Zm0 0" style="stroke:none;fill-rule:nonzero;fill:#5685df;fill-opacity:1"/><path d="M25.574 3.578c.043.031.086.067.125.098q.054.034.11.062c.187.098.343.235.507.364q.083.064.164.12c.024.016.047.036.075.051v.051l.05.016c.102.047.176.12.258.2l.102.093.047.047q.098.093.203.175c.11.098.21.207.308.317.012.012.028.023.04.035.046.055.09.102.125.168.019.05.019.05.097.066q.065.075.125.157l.04.047c.023.03.046.066.073.097q.049.064.102.13.217.274.41.573l.07.106a9.6 9.6 0 0 1 1.06 2.195l.023.059q.027.082.054.164l.024.082q.017.04.027.086a1 1 0 0 1 .027.078q.03.116.047.226l.024.067c.03.097.047.191.066.289a.7.7 0 0 0 .059.238c.03.067.039.13.047.2.007.085.027.171.05.253.043.188.067.356.055.543.016.008.031.02.05.028q0 .034-.003.07c-.004.074-.004.074.027.101v.176q.011.06.028.125.023.2.023.399v.097l.027.024v.265c0 .043 0 .043.004.086v2c0 .325 0 .637-.054.953q-.017.112-.028.223h-.05q.016.076.027.152c-.028.012-.028.012-.051.024-.012.05-.012.05-.016.113q-.002.036-.004.07c-.003.032-.003.032-.003.067-.008.066-.02.133-.028.2l-.012.077-.011.086-.012.082a1 1 0 0 1-.066.2l-.024.113-.012.066c-.007.047-.02.094-.027.14l-.012.075-.011.066c-.012.059-.035.106-.063.16l-.012.079q-.004.035-.015.07a.3.3 0 0 0-.047.027q-.01.075-.02.157c-.02.171-.082.34-.14.507-.02.059-.035.121-.055.18a4 4 0 0 1-.094.27c-.035.09-.062.187-.093.28q-.037.099-.075.196h-.05q-.007.035-.008.074c-.028.164-.102.313-.168.465q-.04.083-.074.172c-.121.3-.254.59-.403.879l-.031.059a13 13 0 0 1-.398.71q-.036.072-.079.137c-.359.61-.761 1.192-1.214 1.735q-.05.058-.098.12c-.27.329-.27.329-.363.419h-.051l-.02.043a.7.7 0 0 1-.125.156c-.027.023-.027.023-.054.055q-.03.024-.059.054l-.058.059c-.079.074-.153.148-.231.223-.469.476-.875 1.074-1.242 1.628q-.064.095-.13.184c-.175.25-.331.512-.487.773q-.078.128-.16.25c-.063.09-.114.188-.165.29q-.047.094-.101.187a17 17 0 0 0-.707 1.363l-.07.149c-.149.308-.29.625-.418.941a9 9 0 0 1-.145.332 6 6 0 0 0-.164.45q-.048.147-.098.288-.018.047-.03.086c-.028.067-.028.067-.08.094q-.015.083-.026.172a1.4 1.4 0 0 1-.047.172 5.647 5.647 0 0 1-.105.332q-.029.09-.052.18-.009.032-.02.062l-.03.125q-.024.072-.047.149l-.051.023c-.004.055-.012.105-.016.16-.011.113-.039.219-.066.332l-.035.145c-.004.023-.012.047-.016.07a9 9 0 0 0-.074.344c-.02.07-.035.14-.055.215-.023.101-.03.203-.043.308-.02.067-.02.067-.078.106-.086.015-.117-.004-.191-.055a1 1 0 0 1-.063-.043q-.034-.02-.062-.039a1 1 0 0 0-.094-.05 3.7 3.7 0 0 1-.863-.723v-.047h-.047c-.035-.04-.035-.04-.078-.094a1 1 0 0 0-.043-.059q-.023-.032-.047-.062l-.047-.067a4 4 0 0 1-.34-.539c-.02-.035-.035-.066-.054-.101a6.6 6.6 0 0 1-.497-1.117l-.058-.153c-.016-.039-.027-.082-.043-.12l-.035-.095q-.02-.057-.043-.113-.007-.024-.02-.055a.64.64 0 0 1-.05-.308h-.051a3 3 0 0 1-.063-.192c-.012-.023-.012-.023-.02-.05a.7.7 0 0 1-.042-.305h-.051l-.016-.043q-.127-.407-.265-.812c-.262-.782-.262-.782-.29-1.079a3 3 0 0 0-.03-.18q-.034-.156-.067-.32c-.004-.027-.012-.054-.016-.086-.031-.14-.05-.27-.047-.414l-.023-.023v-.148l-.023-.028c-.02-.113-.028-.226-.04-.34-.003-.02-.003-.035-.007-.054a7 7 0 0 1-.032-.848h-.05v-.227c0-.07 0-.07.027-.12h-.05v-.145c.003-.028.003-.051.003-.082 0-.07 0-.07-.027-.145q-.005-.075-.004-.152v-.449a1 1 0 0 1 .027-.168v-.227l.024-.023a1 1 0 0 0 0-.13c0-.109.004-.21.027-.316q.012-.017.023-.027v-.082c-.003-.145.024-.285.051-.43l.012-.086c.035-.191.07-.379.121-.57q.01-.029.02-.062.059-.223.128-.446a1 1 0 0 0 .032-.113c.027-.098.066-.191.105-.285q.032-.083.063-.164c.09-.25.218-.485.347-.719l.035-.059q.016-.032.032-.062.016-.026.031-.05c.027-.052.059-.095.09-.138.062-.082.11-.164.156-.25.063-.117.137-.226.211-.336.027-.043.059-.09.086-.136.023-.032.023-.032.043-.067q.045-.069.086-.136a.4.4 0 0 0 .043-.067.4.4 0 0 0 .043-.066q.053-.082.105-.156c.008-.016.02-.032.028-.047q.04-.062.082-.125.091-.146.172-.297.054-.1.113-.2c.36-.605.629-1.25.879-1.906l.035-.09c.172-.445.308-.902.43-1.363.128-.48.128-.48.363-.636a.67.67 0 0 1 .5 0c.144.062.265.136.379.25.011.011.027.023.039.039.152.16.234.367.285.582.012.03.012.03.02.066.05.172.066.328.058.504l.05.027v.168c0 .055 0 .055-.026.106h.05v.843h-.05l.027.075c.015.215-.012.433-.05.644q-.015.011-.028.028a1 1 0 0 0-.008.113q-.017.177-.04.355l-.01.094a1 1 0 0 1-.067.207l-.024.098-.011.047c-.028.105-.04.214-.051.32-.016.082-.016.082-.04.156l-.05.024q.011.04.027.074-.029.04-.05.074c-.016.05-.016.05-.028.102l-.047.203-.011.054c-.012.047-.028.094-.04.141l-.05.023q-.017.09-.028.176c-.125.422-.32.828-.527 1.215a5.605 5.605 0 0 1-.531.867c-.176.23-.297.485-.297.774q.019.085.031.172.01.046.02.093a.33.33 0 0 0 .125.184 10 10 0 0 0 .957-.523c.043-.028.09-.06.133-.086.21-.13.414-.262.609-.415a5 5 0 0 1 .176-.132c.156-.117.3-.242.441-.371q.087-.084.18-.16c.062-.051.117-.106.176-.165.066-.062.066-.062.117-.062q.006-.023.02-.047a.5.5 0 0 1 .105-.129c.105-.105.199-.215.293-.332q.053-.063.105-.133c.145-.172.278-.343.403-.527q.036-.052.074-.106c.136-.199.27-.398.379-.617.02-.039.02-.039.043-.078l.222-.457c.114-.246.235-.484.38-.719q.106-.17.195-.359.04-.076.082-.16.312-.594.53-1.235.043-.111.09-.222c.106-.278.188-.567.25-.856q.025-.111.055-.222l.024-.086c.015-.059.035-.117.05-.176.04-.16.07-.309.086-.473a2 2 0 0 1 .051-.148v-.125l.024-.024v-.062c0-.063 0-.063.027-.09q.007-.07.008-.144.02-.252.05-.504c.012-.114.016-.223.016-.336 0-.059 0-.059.012-.137.016-.113.016-.223.016-.336v-.633c0-.101-.004-.195-.028-.293v-.195c-.004-.227-.043-.453-.074-.676a2 2 0 0 1-.027-.37h-.024q-.001-.028.004-.056c0-.07 0-.07-.027-.14a1.2 1.2 0 0 1-.051-.278 1 1 0 0 1-.016-.117c0-.02-.003-.035-.003-.054a2 2 0 0 0-.032-.153q-.006-.029-.011-.062c-.012-.059-.012-.059-.04-.106a1 1 0 0 1-.058-.176q-.01-.036-.02-.074-.009-.036-.02-.074c-.01-.055-.027-.105-.038-.156-.008-.028-.016-.051-.02-.078a9 9 0 0 0-.387-1.157 2.3 2.3 0 0 1-.109-.351c-.023-.055-.023-.055-.074-.102q-.029-.054-.05-.113a2 2 0 0 0-.126-.281c-.031-.059-.055-.117-.082-.18a9 9 0 0 0-.441-.863q-.048-.082-.094-.168-.083-.147-.172-.293-.016-.023-.031-.047a7 7 0 0 0-.18-.29l-.043-.066c-.035-.058-.035-.058-.07-.101-.102-.14-.086-.313-.067-.48a.64.64 0 0 1 .223-.372l.055-.05c.137-.094.36-.211.523-.149m.805 3.95.023.05Zm.176.5.023.046Zm.175.57.024.05Zm2.86.074.027.05Zm.176.547.027.074Zm-2.684.992v.125h.023v-.125zm3.035.547v.125h.028v-.125zm-3.21 4.004.023.074Zm-6.024.222.023.051Zm1.605.371.024.102Zm4.242.075.024.074Zm-6.023.125.023.05Zm-.027.074.027.05Zm5.875.375.023.047Zm-6.051.148.027.051Zm5.875.32.023.051Zm3.562.274.028.078Zm-7.43.399v.175h.028v-.175zm7.079.894.027.05Zm-.527 1.441.027.051Zm-7.102.2.023.05Zm-4.293 1.965.027.046Zm-.148.546.023.075Zm-.028.098.028.074Zm-.148.871.023.074Zm-.051.371.023.051Zm0 .176.023.047Zm.05 2.234.024.102Zm.126 1.145.023.074Zm.023.074v.125h.028v-.125zm.028.149v.125h.023v-.125zm.148.894.027.05Zm.027.098.024.078Zm.149.5.027.047Zm.027.047.024.05Zm4.793.425.023.047Zm-4.617.122.023.05Zm4.113 1.043.027.05Zm-.023.078.023.047Zm-.352.968.024.047Zm-.176.547.024.047Zm-.351 1.29.023.074Zm0 0" style="stroke:none;fill-rule:nonzero;fill:#fbcd4d;fill-opacity:1"/><path d="M24.246 3.008a.6.6 0 0 1 .125.125c-.062.168-.25.254-.398.336-.356.203-.7.43-1.04.66-.07.047-.07.047-.12.047v.047c-.11.074-.11.074-.176.074v.05c-.063.06-.086.075-.176.075l-.023.074a2 2 0 0 1-.16.117l-.098.067-.047.035c-.106.07-.2.152-.297.23l-.063.051c-.293.23-.574.477-.843.73-.016.016-.032.028-.043.044a.2.2 0 0 0-.04.039c-.042.03-.042.03-.093.058-.063.028-.07.063-.098.121q-.058.059-.12.106a2 2 0 0 0-.247.25q-.076.086-.16.168l-.133.129-.066.062c-.055.05-.055.05-.078.106H19.8c-.004.011-.008.027-.016.039-.043.078-.101.136-.16.199a7 7 0 0 0-.375.433q-.03.038-.062.075-.105.137-.215.273c-.024.027-.024.027-.047.059-.192.25-.383.496-.555.761a7 7 0 0 1-.148.2q-.04.06-.075.125-.045.076-.097.148c-.254.375-.477.774-.696 1.172l-.117.21c-.152.274-.297.548-.425.829-.024.047-.043.098-.067.145a13 13 0 0 0-.433.996c-.024.062-.047.12-.07.183q-.014.042-.032.082l-.023.059h-.051q-.001.036-.008.074a1.4 1.4 0 0 1-.082.29q-.02.055-.04.112l-.023.059q-.056.159-.113.324c-.004.024-.012.043-.02.067q-.069.203-.132.406-.03.091-.059.184l-.027.085-.024.075q-.012.033-.02.066c-.027.047-.027.047-.081.063a.2.2 0 0 1-.047.007 5 5 0 0 1-.137-.402c-.008-.02-.011-.039-.02-.059q-.012-.051-.03-.109-.017-.066-.04-.133-.009-.035-.02-.07c-.007-.024-.01-.043-.019-.063-.011-.058-.011-.058-.008-.12-.003-.075-.023-.087-.078-.137-.02-.047-.02-.047-.035-.106-.261-.926-.816-1.96-1.558-2.597-.04-.055-.04-.055-.04-.122.036-.109.086-.203.141-.304l.035-.063q.148-.271.301-.535.024-.035.047-.078l.129-.219c.02-.027.02-.027.035-.055.09-.152.184-.296.281-.445q.024-.03.047-.066c.29-.426.59-.832.926-1.219.066-.074.125-.148.187-.223.079-.097.16-.183.25-.27.036-.034.036-.034.06-.081h.046l.02-.043c.042-.074.097-.121.156-.184l.082-.082q.045-.042.086-.086a1 1 0 0 1 .047-.043q.054-.057.113-.11h.05l.016-.042a.5.5 0 0 1 .153-.156q.13-.1.253-.211a1 1 0 0 0 .051-.043l.098-.086a.7.7 0 0 1 .258-.156l.023-.075c.04-.035.04-.035.09-.07l.059-.043q.03-.02.058-.039l.063-.047.441-.304q.083-.055.164-.114a2 2 0 0 1 .203-.125c.063-.035.125-.078.188-.117.234-.14.48-.27.722-.398l.172-.09a10 10 0 0 1 1.754-.742c.032-.008.059-.02.09-.028q.07-.023.133-.047.136-.042.266-.086c.648-.222.648-.222.894-.21v-.051a1.6 1.6 0 0 1 .527-.075v-.05q.076-.008.153-.016c.047-.004.047-.004.074-.031.062-.016.129-.028.191-.04q.059-.009.11-.019a.2.2 0 0 1 .05-.008q.118-.021.235-.05a.8.8 0 0 1 .242-.008m-9.238 10.086.027.05Zm.203.574.023.047Zm.55.121.024.05Zm-.402.399.028.05Zm.028.074.023.074Zm.199.074.023.05ZM8.008 2.781h.5q.083.001.172-.004h.457c.05.004.05.004.097.055.067.004.125.004.192.004.156-.004.308 0 .46.023l.098.012c.2.031.2.031.23.063.048.003.098.011.145.015.454.059.91.223 1.325.403q.091.04.18.074c.308.12.6.285.886.449.023.016.023.016.047.027.125.067.125.067.152.125q.031.007.055.02a1.3 1.3 0 0 1 .281.172c.281.203.555.426.82.652.032.024.032.024.06.05q.138.118.265.247.045.041.086.082.042.04.086.086.022.019.046.043.056.053.11.113v.051h.05a1.4 1.4 0 0 1 .118.129.5.5 0 0 0 .058.066l.07.082q.323.369.614.762c.023.027.023.027.047.059.156.21.156.21.2.293-.024.113-.087.152-.177.222-.047.047-.09.098-.129.145-.046.054-.097.101-.144.148-.098.094-.184.2-.27.305a4 4 0 0 1-.21.23 4 4 0 0 0-.325.391q-.035.051-.078.098h-.05a.1.1 0 0 1-.02.043c-.035.066-.078.105-.13.156-.073-.024-.116-.035-.163-.102q-.013-.029-.031-.062c-.223-.438-.516-.844-.81-1.238-.023-.036-.05-.07-.073-.106a8 8 0 0 0-.653-.793c-.078-.086-.152-.18-.226-.27a2 2 0 0 0-.18-.187l-.07-.07a6 6 0 0 0-.371-.352c-.051-.043-.098-.082-.145-.125a10 10 0 0 0-.73-.578l-.063-.039-.117-.082q-.026-.017-.05-.035-.024-.016-.048-.031-.017-.016-.035-.032v-.047q-.02-.006-.043-.007a.5.5 0 0 1-.168-.09c-.68-.434-1.41-.785-2.176-1.055l-.195-.07c-.277-.102-.57-.168-.855-.246v-.047a1 1 0 0 1-.102-.028l.024-.097c.421-.059.421-.059.628-.051v-.023h.278zm.324.028v.023h.152v-.023zm.426 0v.023h.125v-.023zm0 0" style="stroke:none;fill-rule:nonzero;fill:#5685df;fill-opacity:1"/><path d="M1.707 12.895v.773h-.05v-.05h-.052v-.696c.051-.027.051-.027.102-.027m0 0" style="stroke:none;fill-rule:nonzero;fill:#608ee9;fill-opacity:1"/><path d="M5.297 4.871c0 .074 0 .074-.047.129l-.066.066-.036.036-.074.07q-.056.054-.113.11c-.184.183-.184.183-.27.21a.33.33 0 0 1 .11-.219c.015-.015.035-.03.05-.05q.028-.023.055-.051.026-.023.051-.05c.129-.126.129-.126.188-.126q.008-.026.02-.05c.03-.051.03-.051.085-.071q.024-.002.047-.004m0 0" style="stroke:none;fill-rule:nonzero;fill:#6182db;fill-opacity:1"/><path d="M20.305 6.188c.015.046.015.046.023.097-.047.055-.047.055-.082.086-.078.074-.148.156-.219.234-.05.055-.05.055-.097.079-.02-.043-.02-.043-.028-.098.035-.05.035-.05.086-.098l.055-.054a1 1 0 0 0 .059-.055q.03-.025.058-.055.073-.069.145-.136m0 0" style="stroke:none;fill-rule:nonzero;fill:#6778dc;fill-opacity:1"/><path d="M8.309 2.781h.5a.3.3 0 0 1-.051.051q.15.011.3.027v.024h-.902v-.024c.164-.015.164-.015.328-.027H8.31zm0 0" style="stroke:none;fill-rule:nonzero;fill:#637adc;fill-opacity:1"/><path d="M6.2 7.105c.03.008.066.02.1.028l-.023.043c-.027.05-.027.05-.039.097-.02.075-.043.141-.066.211q-.011.042-.027.082-.01.031-.02.063h-.078c-.035-.106.008-.176.047-.274l.023-.058c.051-.129.051-.129.082-.192m0 0" style="stroke:none;fill-rule:nonzero;fill:#647ce3;fill-opacity:1"/><path d="M15.586 14.188h.023c.04.171.012.269-.074.421l-.101-.023-.024-.172.05.047q.014-.035.024-.074h.051c.008-.035.008-.035.012-.07.015-.079.015-.079.039-.13m0 .148.023.05Zm0 0" style="stroke:none;fill-rule:nonzero;fill:#6a74db;fill-opacity:1"/><path d="M7.027 19.207a2.3 2.3 0 0 1 .254.29c.028.038.028.038.074.108q-.016.037-.027.075a.34.34 0 0 1-.18-.157q-.02-.03-.043-.058c-.027-.059-.027-.059-.027-.156h-.05zm0 0" style="stroke:none;fill-rule:nonzero;fill:#6869de;fill-opacity:1"/><path d="M11.219 22.887c.14.047.289.097.402.199.016.05.016.05.024.098a2 2 0 0 1-.282-.13q-.04-.016-.082-.038l-.062-.032zm0 0" style="stroke:none;fill-rule:nonzero;fill:#5f81e5;fill-opacity:1"/><path d="M7.73 29.621h.051q.023.07.051.14.011.037.027.079c.02.074.028.129.02.203h-.047q.012.034.023.074h-.05a1.4 1.4 0 0 1-.075-.496m.024.172.027.05Zm0 0" style="stroke:none;fill-rule:nonzero;fill:#6a75d8;fill-opacity:1"/><path d="M10.016 18.86h.074c.062.14.113.269.125.421h-.102c-.05-.14-.086-.27-.097-.422m.046.148.028.05Zm0 0" style="stroke:none;fill-rule:nonzero;fill:#637be2;fill-opacity:1"/><path d="M3.738 21.023c.008.016.02.032.028.047l.074-.023c.027.043.05.086.078.133q.018.034.043.074c.031.066.031.066.004.14l-.05.024c-.028-.05-.06-.102-.087-.156a.3.3 0 0 0-.027-.043c-.04-.07-.063-.114-.063-.196m0 0" style="stroke:none;fill-rule:nonzero;fill:#845fca;fill-opacity:1"/><path d="M10.871 22.68c.09.039.184.086.274.133v.097c-.149-.055-.274-.105-.38-.223.051-.027.051-.027.106-.007m0 0" style="stroke:none;fill-rule:nonzero;fill:#617be1;fill-opacity:1"/><path d="M30.344 12.82h.023v1.293h-.023zm0 0" style="stroke:none;fill-rule:nonzero;fill:#fcdc52;fill-opacity:1"/><path d="M5.95 7.8h.073a1.3 1.3 0 0 1-.101.348h-.074c.015-.128.043-.226.101-.347m0 0" style="stroke:none;fill-rule:nonzero;fill:#5b80e8;fill-opacity:1"/><path d="M16.414 12.027q.023.012.05.024-.016.058-.034.117c-.004.023-.012.047-.016.066a.5.5 0 0 1-.102.164c-.027-.039-.027-.039-.05-.097.023-.063.023-.063.058-.13.012-.023.024-.042.035-.066.036-.054.036-.054.06-.078m0 0" style="stroke:none;fill-rule:nonzero;fill:#687ce3;fill-opacity:1"/><path d="M14.105 11.379a.32.32 0 0 1 .172.148q.018.023.036.051c.007.024.007.024.019.05q-.029.05-.05.099l-.204-.297a.2.2 0 0 0 .027-.051m0 0" style="stroke:none;fill-rule:nonzero;fill:#8165d2;fill-opacity:1"/><path d="M5.043 13.492c.062.09.059.125.055.23v.083c0 .027 0 .027-.004.062q-.05-.017-.098-.027v-.297h.047zm0 0" style="stroke:none;fill-rule:nonzero;fill:#6c75e4;fill-opacity:1"/><path d="M15.309 7.48h.05a.35.35 0 0 1-.113.23q-.023.027-.05.052-.018.022-.036.039l-.101-.047c.039-.047.082-.094.12-.137q.018-.022.036-.039.046-.051.094-.098m0 0" style="stroke:none;fill-rule:nonzero;fill:#6877e0;fill-opacity:1"/><path d="M7.379 4.523c.055.055.066.07.074.149-.023.07-.023.07-.058.14a.5.5 0 0 1-.04.075q-.01.03-.027.058c-.031-.015-.066-.035-.101-.05.027-.051.027-.051.101-.075.004-.023.004-.023.004-.047q.004-.03.008-.058.001-.031.008-.063c.007-.054.007-.054.03-.129m0 0" style="stroke:none;fill-rule:nonzero;fill:#5f7ee6;fill-opacity:1"/><path d="m4.996 12.227.074.023q.008.066.016.133c.004.023.004.047.008.074 0 .066 0 .066-.051.14v-.05h-.047zm0 0" style="stroke:none;fill-rule:nonzero;fill:#6a79dd;fill-opacity:1"/><path d="M5.043 11.68h.102q-.001.064-.008.133c0 .023-.004.046-.004.074-.016.07-.031.093-.09.14-.023-.117-.023-.117-.023-.175v-.075c0-.074 0-.074.023-.097m0 0" style="stroke:none;fill-rule:nonzero;fill:#6e6de0;fill-opacity:1"/><path d="M18.145 5.27q.029.01.05.023v.05h-.05l-.024.075c-.125.102-.125.102-.223.094-.02-.008-.035-.016-.054-.02q.147-.117.3-.222m0 0" style="stroke:none;fill-rule:nonzero;fill:#6c76de;fill-opacity:1"/><path d="M7.004 27.406h.098q.022.064.039.121c.007.024.015.043.023.067.016.062.016.062-.012.136q-.036-.021-.074-.05-.017-.072-.027-.149l-.047-.047zm0 0" style="stroke:none;fill-rule:nonzero;fill:#687be4;fill-opacity:1"/><path d="m17.469 9.89.101.024-.07.125q-.02.036-.04.07c-.015.016-.026.036-.042.055h-.102c.04-.101.09-.187.153-.273m0 0" style="stroke:none;fill-rule:nonzero;fill:#6f78e1;fill-opacity:1"/><path d="M16.566 6.484h.024c.008.082.008.114-.043.18-.059.047-.113.066-.184.094-.035.023-.066.05-.101.074a.6.6 0 0 1 .203-.246h.05a1 1 0 0 1 .051-.102m0 0" style="stroke:none;fill-rule:nonzero;fill:#2b83f0;fill-opacity:1"/><path d="M13.754 10.137a.4.4 0 0 1 .05.101c-.027.106-.074.2-.124.297-.032-.039-.032-.039-.051-.098.023-.109.074-.203.125-.3m0 0" style="stroke:none;fill-rule:nonzero;fill:#637ce9;fill-opacity:1"/><path d="M14.707 8.176q.026.034.05.074c-.023.027-.046.059-.07.086l-.039.047c-.043.039-.043.039-.117.066l-.023.051h-.051a.8.8 0 0 1 .14-.207q.024-.023.048-.05a.5.5 0 0 1 .062-.067m0 0" style="stroke:none;fill-rule:nonzero;fill:#627ce4;fill-opacity:1"/><path d="M10.14 19.332h.051l.024.05.05-.027c.012.04.028.075.04.11l.023.058c.012.059.012.059-.012.133h-.05zm0 0" style="stroke:none;fill-rule:nonzero;fill:#5e8bea;fill-opacity:1"/><path d="m12.246 34.168.102.023c.004.184.004.184-.024.274l-.05-.024h-.051zm0 0" style="stroke:none;fill-rule:nonzero;fill:#6779e7;fill-opacity:1"/><path d="M6.828 26.71c.059.071.098.138.125.227-.012.067-.012.067-.027.122q-.022-.047-.051-.098h-.047q-.029-.1-.05-.2h.05zm0 0" style="stroke:none;fill-rule:nonzero;fill:#5f7ddc;fill-opacity:1"/><path d="M17.219 10.41h.047c-.043.125-.11.235-.176.348-.04-.078-.016-.137 0-.223.043-.058.043-.058.078-.098l.023.024zm0 0" style="stroke:none;fill-rule:nonzero;fill:#7075ef;fill-opacity:1"/><path d="M14.078 8.176c.067.062.125.12.176.199v.074l-.074.024q-.031-.053-.063-.106l-.039-.062c-.023-.055-.023-.055 0-.13m0 0" style="stroke:none;fill-rule:nonzero;fill:#7968d1;fill-opacity:1"/><path d="M8.785 33.445c.047.07.063.11.078.192l.012.062c.004.016.008.028.008.047h-.047q-.029.023-.05.047a1 1 0 0 1-.028-.117l-.02-.067c-.004-.07.008-.101.047-.164m0 0" style="stroke:none;fill-rule:nonzero;fill:#5f71dd;fill-opacity:1"/><path d="M8.383 20.797q.04.036.086.074a.4.4 0 0 1 .047.04c.03.026.062.058.093.085-.011.055-.011.055-.027.102q-.048-.042-.098-.082a1 1 0 0 1-.058-.043c-.043-.051-.043-.051-.051-.118q.004-.03.008-.058m0 0" style="stroke:none;fill-rule:nonzero;fill:#8058e8;fill-opacity:1"/><path d="M15.082 5.89c.125.114.125.114.152.196l-.023.078-.203-.226zm0 0" style="stroke:none;fill-rule:nonzero;fill:#637fe6;fill-opacity:1"/><path d="M15.36 26.785c.027.086.023.11-.005.192-.011.027-.011.027-.02.058-.026.05-.026.05-.1.074-.005-.097-.005-.164.05-.25.04-.043.04-.043.074-.074m0 0" style="stroke:none;fill-rule:nonzero;fill:#508aec;fill-opacity:1"/><path d="M3.465 20.352c.098.105.098.105.105.187q-.004.03-.007.059a1 1 0 0 0 .027.101c-.11-.09-.152-.199-.203-.324.027-.008.05-.016.078-.023m0 0" style="stroke:none;fill-rule:nonzero;fill:#6c5fdb;fill-opacity:1"/><path d="M17.645 9.59q.021.05.05.101c-.023.067-.062.114-.101.172l-.102-.047q.076-.11.153-.226m0 0" style="stroke:none;fill-rule:nonzero;fill:#716fdc;fill-opacity:1"/><path d="M2.836 7.977h.074a.38.38 0 0 1-.125.25h-.074a.54.54 0 0 1 .125-.25m0 0" style="stroke:none;fill-rule:nonzero;fill:#7667d1;fill-opacity:1"/><path d="M19.148 4.695v.051h-.05q-.005.023-.016.047c-.031.05-.031.05-.105.086l-.079.016q-.036-.023-.074-.051c.043-.024.09-.047.133-.074.027-.012.05-.028.078-.04.063-.035.063-.035.113-.035m0 0" style="stroke:none;fill-rule:nonzero;fill:#5280e8;fill-opacity:1"/><path d="M6.875 3.676c.145-.012.21.027.328.101-.074.051-.074.051-.133.04a.3.3 0 0 1-.058-.02c-.02-.008-.04-.012-.059-.02-.05-.023-.05-.023-.078-.101m0 0" style="stroke:none;fill-rule:nonzero;fill:#5480e5;fill-opacity:1"/><path d="M10.164 22.313c.11.007.164.015.25.085.05.067.05.067.05.141-.042-.027-.089-.059-.136-.086l-.074-.047c-.063-.043-.063-.043-.09-.093m0 0" style="stroke:none;fill-rule:nonzero;fill:#5e7cdd;fill-opacity:1"/><path d="M10.34 19.781h.101c.04.067.04.067.075.149l-.024.074h-.078c-.074-.14-.074-.14-.074-.223m0 0" style="stroke:none;fill-rule:nonzero;fill:#6c72e7;fill-opacity:1"/><path d="M14.207 4.996c.133.05.219.156.3.274-.198-.051-.198-.051-.253-.125-.027-.082-.027-.082-.047-.149m0 0" style="stroke:none;fill-rule:nonzero;fill:#6e80cc;fill-opacity:1"/><path d="M14.656 28.105h.051a.5.5 0 0 1-.102.247h-.074l-.023.05.023-.101q.026.017.051.027l-.02-.043c-.003-.058-.003-.058.04-.125.02-.02.035-.039.054-.055m0 0" style="stroke:none;fill-rule:nonzero;fill:#7a6cd2;fill-opacity:1"/><path d="M14.48 11.902c.082.07.114.118.125.223l-.074.027a5 5 0 0 0-.101-.199c.02-.015.035-.035.05-.05m0 0" style="stroke:none;fill-rule:nonzero;fill:#6f73e1;fill-opacity:1"/><path d="M16.39 6.71q.035.014.075.024l-.094.098-.05.059c-.067.05-.102.05-.184.043.16-.16.16-.16.254-.223m0 0" style="stroke:none;fill-rule:nonzero;fill:#6671e5;fill-opacity:1"/><path d="M7.18 5.094c.023.074.023.074-.008.152-.043.07-.043.07-.094.098l-.05-.028c.027-.105.05-.164.152-.222m0 0" style="stroke:none;fill-rule:nonzero;fill:#6780e8;fill-opacity:1"/><path d="m23.668 3.652-.3.2c0-.075 0-.075.023-.149.086-.058.175-.098.277-.05m0 0" style="stroke:none;fill-rule:nonzero;fill:#497def;fill-opacity:1"/><path d="M8.883 34.14h.101c.016.06.036.118.051.176q-.036.034-.074.075a.7.7 0 0 1-.078-.25m0 0" style="stroke:none;fill-rule:nonzero;fill:#706dd9;fill-opacity:1"/><path d="M7.227 27.953h.05c.043.09.059.152.051.25l-.074.024-.012-.07c-.008-.075-.008-.075-.039-.13zm0 0" style="stroke:none;fill-rule:nonzero;fill:#5e80e5;fill-opacity:1"/><path d="M16.664 11.406c.008.016.02.031.027.051h.051c-.027.094-.05.16-.129.223v-.051l-.047-.024q.05-.099.098-.199m0 0" style="stroke:none;fill-rule:nonzero;fill:#756bd6;fill-opacity:1"/><path d="M7.102 2.883h.226v.05h-.074l-.027.075c-.075-.012-.075-.012-.149-.028zm0 0" style="stroke:none;fill-rule:nonzero;fill:#448ce9;fill-opacity:1"/><path d="M15.688 13.89h.05a.25.25 0 0 1 0 .2c-.066.031-.066.031-.129.05l.024-.113a.3.3 0 0 0 .015-.062c.012-.05.012-.05.04-.074m0 0" style="stroke:none;fill-rule:nonzero;fill:#607fe4;fill-opacity:1"/><path d="M13.602 7.379c.078.105.078.105.07.184q-.01.018-.02.042c-.12-.117-.12-.117-.148-.199.05-.027.05-.027.098-.027m0 0" style="stroke:none;fill-rule:nonzero;fill:#7a70dc;fill-opacity:1"/><path d="M13.027 6.684c.106.078.106.078.149.125.011.07.011.07 0 .125-.082-.028-.09-.04-.133-.11-.012-.031-.027-.058-.043-.09.008-.015.016-.035.027-.05m0 0" style="stroke:none;fill-rule:nonzero;fill:#7566d7;fill-opacity:1"/><path d="m4.82 5.27.075.023a.43.43 0 0 1-.176.2c-.02-.044-.02-.044-.028-.102.063-.067.063-.067.13-.121m0 0" style="stroke:none;fill-rule:nonzero;fill:#667adf;fill-opacity:1"/><path d="M19.93 4.297c-.004.047-.004.047-.028.101-.074.043-.074.043-.148.075q-.029-.012-.05-.024v-.074c.167-.078.167-.078.226-.078m0 0" style="stroke:none;fill-rule:nonzero;fill:#4c82eb;fill-opacity:1"/><path d="M8.984 34.488h.102l.023.176h-.097a2 2 0 0 1-.028-.176m0 0" style="stroke:none;fill-rule:nonzero;fill:#6378e2;fill-opacity:1"/><path d="M7.93 30.242c.078.074.066.145.078.246-.028.016-.051.035-.078.051q-.014-.051-.028-.11-.007-.028-.015-.058c-.008-.055-.008-.055.043-.129m0 .172.027.05Zm0 0" style="stroke:none;fill-rule:nonzero;fill:#6d76da;fill-opacity:1"/><path d="m14.758 27.93.074.023a.37.37 0 0 1-.125.2v-.048h-.05a.4.4 0 0 1 .1-.175m0 0" style="stroke:none;fill-rule:nonzero;fill:#627fe7;fill-opacity:1"/><path d="M16.816 11.082h.102c-.027.094-.05.16-.129.223-.02-.07-.027-.11 0-.18a.3.3 0 0 1 .027-.043m0 0" style="stroke:none;fill-rule:nonzero;fill:#6e6ce1;fill-opacity:1"/><path d="M1.906 10.832a.35.35 0 0 1 0 .227l-.125.023.051-.023q-.01-.03-.02-.059-.001-.03-.003-.066c.046-.059.046-.059.097-.102m0 0" style="stroke:none;fill-rule:nonzero;fill:#6d6ed5;fill-opacity:1"/><path d="M14.305 8.523c.008.016.02.032.027.051q.048-.029.098-.05.016.033.027.074-.04.036-.074.074c-.063-.02-.063-.02-.13-.05l-.023-.075zm0 0" style="stroke:none;fill-rule:nonzero;fill:#7c5fde;fill-opacity:1"/><path d="M3.738 6.61c0 .1-.043.144-.097.222l-.102-.047a.43.43 0 0 1 .2-.176m0 0" style="stroke:none;fill-rule:nonzero;fill:#746fd8;fill-opacity:1"/><path d="m21.332 5.219.078.023c-.039.098-.086.13-.176.176 0-.102 0-.102.047-.156zm0 0" style="stroke:none;fill-rule:nonzero;fill:#6d75da;fill-opacity:1"/><path d="M8.309 2.781h.5c-.055.059-.075.067-.149.078-.058-.007-.117-.02-.176-.027H8.31zm0 0" style="stroke:none;fill-rule:nonzero;fill:#713dfa;fill-opacity:1"/><path d="M6.098 25.344a1 1 0 0 0 .078.027c.031.07.031.07.047.149-.02.058-.02.058-.047.097-.055-.094-.086-.16-.078-.273m0 0" style="stroke:none;fill-rule:nonzero;fill:#6d78ea;fill-opacity:1"/><path d="M9.863 37.098a.7.7 0 0 1 .125.101v.098a.4.4 0 0 1-.175-.125v-.047zm0 0" style="stroke:none;fill-rule:nonzero;fill:#7276d8;fill-opacity:1"/><path d="M15.563 26.016c.062.097.042.14.023.25l-.024-.051h-.078c.047-.172.047-.172.079-.2m0 0" style="stroke:none;fill-rule:nonzero;fill:#627de4;fill-opacity:1"/><path d="m15.762 24.402.074.047c.004.067.004.067 0 .125h-.05l-.024.102h-.024q-.005-.062-.004-.125v-.067c.004-.058.004-.058.028-.082m.023.075.027.074Zm0 0" style="stroke:none;fill-rule:nonzero;fill:#756ddd;fill-opacity:1"/><path d="M14.055 19.805a.43.43 0 0 1 .25.148c-.16-.015-.16-.015-.223-.058-.027-.04-.027-.04-.027-.09m0 0" style="stroke:none;fill-rule:nonzero;fill:#4f8be7;fill-opacity:1"/><path d="M13.453 19.082c.074.07.137.129.176.227-.059-.008-.059-.008-.125-.028-.055-.078-.055-.105-.05-.199m0 0" style="stroke:none;fill-rule:nonzero;fill:#5188eb;fill-opacity:1"/><path d="M1.656 12.102h.102v.171h-.102zm0 0" style="stroke:none;fill-rule:nonzero;fill:#6d76de;fill-opacity:1"/><path d="M14.281 9.242q.048.028.102.051a1.2 1.2 0 0 1-.203.176.8.8 0 0 1 .101-.227m0 0" style="stroke:none;fill-rule:nonzero;fill:#8759cc;fill-opacity:1"/><path d="m6.324 6.785.102.024q-.026.073-.051.148h-.102c.02-.059.036-.113.051-.172m0 0" style="stroke:none;fill-rule:nonzero;fill:#637ae0;fill-opacity:1"/><path d="M21.082 5.441c.008.016.016.036.027.051l.047.024c-.054.05-.054.05-.125.101-.031-.008-.066-.02-.097-.027zm0 0" style="stroke:none;fill-rule:nonzero;fill:#6574df;fill-opacity:1"/><path d="M12.273 33.918h.102v.148a1 1 0 0 0-.102.028zm0 0" style="stroke:none;fill-rule:nonzero;fill:#597ce6;fill-opacity:1"/><path d="m6.574 26.34.13.023.046.149a.4.4 0 0 1-.074.027q-.048-.1-.102-.2m0 0" style="stroke:none;fill-rule:nonzero;fill:#7b5bd1;fill-opacity:1"/><path d="M18.797 7.926a1 1 0 0 1 .078.027l-.125.172a1 1 0 0 1-.078-.074q.063-.06.125-.125m0 0" style="stroke:none;fill-rule:nonzero;fill:#776cdd;fill-opacity:1"/><path d="M22.285 3.402c.02.028.035.051.05.078h-.05v.047q-.072.011-.148.028l-.024-.102q.084-.022.172-.05m0 0" style="stroke:none;fill-rule:nonzero;fill:#6572e1;fill-opacity:1"/><path d="M12.246 37.672h.102q.01.083.027.172l-.102.023q-.01-.094-.027-.195m0 0" style="stroke:none;fill-rule:nonzero;fill:#5e79e5;fill-opacity:1"/><path d="M15.785 13.566h.102c-.004.059-.004.059-.024.125-.066.032-.066.032-.125.051zm0 0" style="stroke:none;fill-rule:nonzero;fill:#6780ea;fill-opacity:1"/><path d="M12.047 5.617c.144.106.144.106.172.192.004.027.004.027.004.054q-.047-.03-.086-.066-.029-.02-.051-.04c-.04-.042-.04-.042-.04-.14m0 0" style="stroke:none;fill-rule:nonzero;fill:#6672e4;fill-opacity:1"/><path d="M11.32 37.992c.059.008.114.016.176.028a1 1 0 0 0-.05.097l-.153-.023c.008-.035.02-.067.027-.102m0 0" style="stroke:none;fill-rule:nonzero;fill:#6e69d1;fill-opacity:1"/><path d="M9.21 35.184h.052c.015.07.015.07.023.152-.035.047-.035.047-.074.074-.027-.07-.027-.07-.05-.148.015-.028.034-.051.05-.078m0 0" style="stroke:none;fill-rule:nonzero;fill:#6a7ae2;fill-opacity:1"/><path d="M12.55 32.625q.024.026.048.05c-.008.067-.008.067-.024.126l-.101.023c.047-.172.047-.172.078-.199m0 0" style="stroke:none;fill-rule:nonzero;fill:#6e72de;fill-opacity:1"/><path d="M5.02 23.406h.074c.05.074.05.074.043.13q-.011.022-.016.046h-.05q-.038-.074-.075-.148zm0 0" style="stroke:none;fill-rule:nonzero;fill:#4f86e9;fill-opacity:1"/><path d="M14.207 19.953c.078.008.113.016.168.078q.016.024.031.047l-.05.05c-.122-.12-.122-.12-.149-.175m0 0" style="stroke:none;fill-rule:nonzero;fill:#6976db;fill-opacity:1"/><path d="m7.227 19.48.128.125q-.016.037-.027.075c-.047-.02-.047-.02-.101-.051-.02-.047-.02-.047-.024-.098zm0 0" style="stroke:none;fill-rule:nonzero;fill:#6b79de;fill-opacity:1"/><path d="M2.86 19.207c.062.012.062.012.128.027l.024.075c-.035.054-.035.054-.075.097-.078-.14-.078-.14-.078-.199m0 0" style="stroke:none;fill-rule:nonzero;fill:#7074e2;fill-opacity:1"/><path d="M5.121 14.336h.024v.2c-.032.007-.067.019-.102.027v-.126q.029-.01.05-.023c.009-.027.02-.05.028-.078m0 0" style="stroke:none;fill-rule:nonzero;fill:#6c73e0;fill-opacity:1"/><path d="M13.328 4.297c.094.016.137.055.2.125-.044.02-.044.02-.102.027-.055-.031-.055-.031-.098-.074zm0 0" style="stroke:none;fill-rule:nonzero;fill:#6a76df;fill-opacity:1"/><path d="M20.98 3.926c-.07.07-.128.066-.222.074a.3.3 0 0 1-.051-.05c.094-.063.168-.044.273-.024m0 0" style="stroke:none;fill-rule:nonzero;fill:#7175de;fill-opacity:1"/><path d="m22.863 3.305-.023.074-.152.023-.024-.097a.3.3 0 0 1 .2 0m0 0" style="stroke:none;fill-rule:nonzero;fill:#8759d6;fill-opacity:1"/><path d="M7.555 28.95c.062.062.062.109.074.198l-.098.024c-.015-.07-.015-.07-.027-.149q.026-.036.05-.074m0 0" style="stroke:none;fill-rule:nonzero;fill:#6e6cd6;fill-opacity:1"/><path d="m11.723 22.09.125.05v.2c-.051-.027-.051-.027-.075-.078q-.005-.03-.02-.063-.005-.029-.019-.062zm0 0" style="stroke:none;fill-rule:nonzero;fill:#6c6dea;fill-opacity:1"/><path d="M13.102 18.734a.3.3 0 0 1 .199.153l-.098.023c-.101-.117-.101-.117-.101-.176m0 0" style="stroke:none;fill-rule:nonzero;fill:#7273df;fill-opacity:1"/><path d="M12.523 17.84h.075c.03.058.03.058.05.125-.023.039-.023.039-.05.074-.047-.086-.047-.086-.098-.172q.012-.01.023-.027m0 0" style="stroke:none;fill-rule:nonzero;fill:#7f69d5;fill-opacity:1"/><path d="M17.793 9.344q.029.011.05.023c-.019.117-.019.117-.073.176l-.075-.05c.032-.052.067-.098.098-.15m0 0" style="stroke:none;fill-rule:nonzero;fill:#6d6ed5;fill-opacity:1"/><path d="m6.953 5.441.024.051h.05q-.05.123-.101.246-.022-.023-.051-.047a1 1 0 0 1 .027-.07q.029-.087.051-.18m0 0" style="stroke:none;fill-rule:nonzero;fill:#4583f6;fill-opacity:1"/><path d="M11.195 4.895c.082.027.098.05.145.128q.013.036.031.07a1 1 0 0 1-.203-.124zm0 0" style="stroke:none;fill-rule:nonzero;fill:#528beb;fill-opacity:1"/><path d="M10.09 37.348c.039.03.082.066.125.097l-.024.075c-.05-.02-.05-.02-.101-.047a.4.4 0 0 0-.027-.075zm0 0" style="stroke:none;fill-rule:nonzero;fill:#6f6ed3;fill-opacity:1"/><path d="M12.223 37.2h.074l-.024.124h.051v.047a1 1 0 0 0-.101.027zm0 0" style="stroke:none;fill-rule:nonzero;fill:#6969d3;fill-opacity:1"/><path d="M12.223 36.18h.023v.398c-.047.024-.047.024-.098.047l.024-.098h.027zm0 0" style="stroke:none;fill-rule:nonzero;fill:#6687ed;fill-opacity:1"/><path d="M15.738 23.68h.047v.074h.05v.148l-.097-.023zm0 0" style="stroke:none;fill-rule:nonzero;fill:#7a63db;fill-opacity:1"/><path d="M10.89 20.773c.028.032.051.067.079.098a.2.2 0 0 1-.028.05l.028.075c-.078-.023-.078-.023-.106-.07-.02-.055-.02-.055-.02-.13zm0 0" style="stroke:none;fill-rule:nonzero;fill:#8358d5;fill-opacity:1"/><path d="M5.121 14.934h.05v.074q.035.01.075.027v.098h-.101c.007-.031.015-.067.027-.098h-.05zm0 0" style="stroke:none;fill-rule:nonzero;fill:#538ceb;fill-opacity:1"/><path d="M14.707 12.45c.074.05.074.05.094.1l.008.048q.021-.012.05-.024l.024.098h-.051l-.023.05c-.02-.034-.036-.074-.051-.109q-.014-.029-.028-.062c-.023-.051-.023-.051-.023-.102m0 0" style="stroke:none;fill-rule:nonzero;fill:#4489f2;fill-opacity:1"/><path d="M5.145 11.332h.027c.004.188.004.188-.05.273-.028-.007-.052-.02-.079-.027v-.098l.102.024zm0 0" style="stroke:none;fill-rule:nonzero;fill:#6775ea;fill-opacity:1"/><path d="M14.031 4.82c.074.051.074.051.09.114q.007.029.008.062a.35.35 0 0 1-.176-.152zm0 0" style="stroke:none;fill-rule:nonzero;fill:#607cdc;fill-opacity:1"/><path d="m9.688 36.824.101.102c-.027.011-.027.011-.05.023q-.013.038-.024.074c-.078-.117-.078-.117-.078-.171zm0 0" style="stroke:none;fill-rule:nonzero;fill:#6177ed;fill-opacity:1"/><path d="M12.223 34.563h.023v.124h.05v.102c-.03-.008-.066-.02-.097-.027-.004-.14-.004-.14.024-.2m0 0" style="stroke:none;fill-rule:nonzero;fill:#568ee8;fill-opacity:1"/><path d="M8.36 32.105h.046v.047h.051v.176h-.05zm0 0" style="stroke:none;fill-rule:nonzero;fill:#4294f6;fill-opacity:1"/><path d="M13.125 30.71a1 1 0 0 0 .078.028q-.029.072-.05.149a1 1 0 0 1-.102-.051q.036-.06.074-.125m0 0" style="stroke:none;fill-rule:nonzero;fill:#4d86ec;fill-opacity:1"/><path d="m14.406 28.477.051.023c-.012.094-.027.14-.102.2-.003-.083-.003-.083 0-.173.016-.02.036-.035.051-.05m0 0" style="stroke:none;fill-rule:nonzero;fill:#6c73dd;fill-opacity:1"/><path d="M14.91 20.824q.046.06.098.125l-.024.047-.101-.023c-.016-.047-.016-.047-.024-.102q.023-.023.051-.047m0 0" style="stroke:none;fill-rule:nonzero;fill:#796dda;fill-opacity:1"/><path d="M11.371 14.984a.3.3 0 0 1 .098.051c.02.063.02.063.027.121h-.101zm0 0" style="stroke:none;fill-rule:nonzero;fill:#6b72df;fill-opacity:1"/><path d="M9.84 14.883c.058.058.062.094.074.176l-.027.05h-.098q.023-.11.05-.226m0 0" style="stroke:none;fill-rule:nonzero;fill:#558dee;fill-opacity:1"/><path d="M15.41 7.852c-.09.12-.09.12-.176.148.008-.059.008-.059.024-.121.086-.059.086-.059.152-.027m0 0" style="stroke:none;fill-rule:nonzero;fill:#7a6dd2;fill-opacity:1"/><path d="M11.57 3.328c.067.012.067.012.125.027q.011.05.028.098a.43.43 0 0 1-.203-.074c.015-.016.035-.031.05-.05m0 0" style="stroke:none;fill-rule:nonzero;fill:#6578e1;fill-opacity:1"/><path d="M9.965 37.246a.5.5 0 0 1 .098.05c.019.056.019.056.027.102h-.074c-.051-.093-.051-.093-.051-.152m0 0" style="stroke:none;fill-rule:nonzero;fill:#4880e9;fill-opacity:1"/><path d="m12.375 33.371.098.024-.024.199q-.004-.024-.008-.047-.009-.026-.02-.05l-.073-.024a1 1 0 0 1 .027-.102m0 0" style="stroke:none;fill-rule:nonzero;fill:#686ee3;fill-opacity:1"/><path d="M8.133 31.035h.05l.024.176c-.031-.008-.066-.02-.102-.027q.014-.072.028-.149m0 0" style="stroke:none;fill-rule:nonzero;fill:#617bdb;fill-opacity:1"/><path d="M1.656 14.336q.051.017.102.027v.098a1 1 0 0 0-.102.027zm0 0" style="stroke:none;fill-rule:nonzero;fill:#7874d6;fill-opacity:1"/><path d="M10.063 14.387h.101c-.027.074-.043.097-.117.133-.02.003-.04.011-.059.015.047-.12.047-.12.075-.148m0 0" style="stroke:none;fill-rule:nonzero;fill:#7c69dd;fill-opacity:1"/><path d="M5.121 14.188v.148H5.02c.007-.059.007-.059.023-.121.05-.027.05-.027.078-.027m0 0" style="stroke:none;fill-rule:nonzero;fill:#6a79dc;fill-opacity:1"/><path d="M16.742 11.281q.035.023.074.051c-.015.04-.035.082-.05.125h-.075c.02-.148.02-.148.051-.176m0 0" style="stroke:none;fill-rule:nonzero;fill:#5a82eb;fill-opacity:1"/><path d="M18.621 8.125q.017.026.027.05l.051.024c-.031.04-.031.04-.078.074-.055-.007-.055-.007-.098-.023q.05-.062.098-.125m0 0" style="stroke:none;fill-rule:nonzero;fill:#7472d4;fill-opacity:1"/><path d="M13.402 7.105c.043.047.043.047.075.102l-.024.074c-.121-.066-.121-.066-.152-.148.05-.028.05-.028.101-.028m0 0" style="stroke:none;fill-rule:nonzero;fill:#6679de;fill-opacity:1"/><path d="M3.516 6.832q.01.029.023.05c-.02.044-.02.044-.05.09l-.051.087h-.075c.051-.075.098-.149.153-.227m0 0" style="stroke:none;fill-rule:nonzero;fill:#9752c9;fill-opacity:1"/><path d="M12.45 6.04c.066.022.093.038.132.1.004.016.012.032.016.048q-.024.021-.047.05a.4.4 0 0 1-.102-.199m0 0" style="stroke:none;fill-rule:nonzero;fill:#6181da;fill-opacity:1"/><path d="M11.797 5.39c.07.036.121.067.176.126-.008.015-.016.035-.028.05q-.071-.036-.148-.074zm0 0" style="stroke:none;fill-rule:nonzero;fill:#7a67dd;fill-opacity:1"/><path d="M12.625 32.227c.023.027.05.05.074.078h-.05l-.024.148h-.05q.021-.11.05-.226m0 0" style="stroke:none;fill-rule:nonzero;fill:#647bde;fill-opacity:1"/><path d="m13.906 29.246.074.027c-.015.04-.035.079-.05.122h-.075c.02-.122.02-.122.051-.149m0 0" style="stroke:none;fill-rule:nonzero;fill:#6f72d9;fill-opacity:1"/><path d="M14.531 28.352q.026.01.051.027c-.05.07-.05.07-.102.148a1 1 0 0 0-.074-.074zm0 0" style="stroke:none;fill-rule:nonzero;fill:#6281e8;fill-opacity:1"/><path d="M15.434 21.941a.4.4 0 0 1 .078.2h-.051l-.027.05c-.028-.168-.028-.168 0-.25m0 0" style="stroke:none;fill-rule:nonzero;fill:#6675ee;fill-opacity:1"/><path d="M8.734 21.121c.043.031.082.067.125.098l-.023.101c-.078-.05-.078-.05-.094-.129q-.004-.034-.008-.07m0 0" style="stroke:none;fill-rule:nonzero;fill:#5094eb;fill-opacity:1"/><path d="m7.781 20.176.149.125c-.024.012-.024.012-.051.023q-.012.029-.024.051c-.062-.062-.062-.11-.074-.2m0 0" style="stroke:none;fill-rule:nonzero;fill:#7b6dd1;fill-opacity:1"/><path d="M10.191 19.457h.047v.05l.102.048-.024.101h-.05zm0 0" style="stroke:none;fill-rule:nonzero;fill:#796ae4;fill-opacity:1"/><path d="M2.46 17.965c.06.058.063.094.075.176l-.05.023v-.05q-.038-.013-.075-.024c.02-.098.02-.098.05-.125m-.026.074.027.05Zm0 0" style="stroke:none;fill-rule:nonzero;fill:#6d6ed4;fill-opacity:1"/><path d="M30.32 14.113h.024v.496h-.024zm0 0" style="stroke:none;fill-rule:nonzero;fill:#ffda4a;fill-opacity:1"/><path d="m2.586 8.45.05.023-.027.05.051.024a1 1 0 0 1-.05.101h-.051c0-.144 0-.144.027-.199m-.05.198q.021.024.05.047h-.05zm0 0" style="stroke:none;fill-rule:nonzero;fill:#7871de;fill-opacity:1"/><path d="M15.184 7.629c.015.043.015.043.027.098l-.05.074-.102-.047zm0 0" style="stroke:none;fill-rule:nonzero;fill:#7072d9;fill-opacity:1"/><path d="M6.273 6.957c.028.016.051.035.079.05q-.03.06-.051.126c-.028-.008-.051-.02-.078-.028q.029-.07.05-.148m0 0" style="stroke:none;fill-rule:nonzero;fill:#5a89e9;fill-opacity:1"/><path d="M9.21 3.676a.6.6 0 0 1 .126.05c.02.055.02.055.027.102-.12-.047-.12-.047-.175-.074zm0 0" style="stroke:none;fill-rule:nonzero;fill:#7178e8;fill-opacity:1"/><path d="m14.934 27.707.05.023-.101.149c-.028-.047-.028-.047-.051-.098.027-.05.027-.05.102-.074m0 0" style="stroke:none;fill-rule:nonzero;fill:#7470e3;fill-opacity:1"/><path d="M15.16 27.285c.024.074.024.074 0 .125q-.018.026-.035.05a1 1 0 0 0-.04.056.3.3 0 0 1-.026.043c-.024-.075-.024-.075 0-.125q.017-.028.035-.055a1 1 0 0 1 .039-.055q.01-.02.027-.039m0 0" style="stroke:none;fill-rule:nonzero;fill:#3b9afc;fill-opacity:1"/><path d="M6.676 18.762c.05.02.05.02.101.047l.024.078-.074.023-.051-.05zm0 0" style="stroke:none;fill-rule:nonzero;fill:#6e74d9;fill-opacity:1"/><path d="M9.613 16.945h.102v.125h-.102zm0 0" style="stroke:none;fill-rule:nonzero;fill:#6b7dd8;fill-opacity:1"/><path d="M1.707 12.895v.199l-.05-.024v-.097h-.052v-.051c.051-.027.051-.027.102-.027m0 0" style="stroke:none;fill-rule:nonzero;fill:#7f66cb;fill-opacity:1"/><path d="M30.32 12.352h.024v.468h-.024zm0 0" style="stroke:none;fill-rule:nonzero;fill:#ffdc49;fill-opacity:1"/><path d="M16.164 12.523h.098l-.047.223c-.05-.047-.05-.047-.055-.137q-.001-.044.004-.086m0 0" style="stroke:none;fill-rule:nonzero;fill:#468cf3;fill-opacity:1"/><path d="M1.957 10.262h.05c.028.07.028.097 0 .168q-.01.03-.023.054h-.05zm0 0" style="stroke:none;fill-rule:nonzero;fill:#5e8bec;fill-opacity:1"/><path d="M14.004 9.84c0 .074 0 .074-.035.117q-.023.016-.04.031l-.074-.023c.016-.047.016-.047.051-.102.051-.015.051-.015.098-.023m0 0" style="stroke:none;fill-rule:nonzero;fill:#8b5cd5;fill-opacity:1"/><path d="m17.945 9.121.051.024a.25.25 0 0 1-.074.148v-.05h-.05c.046-.095.046-.095.073-.122m0 0" style="stroke:none;fill-rule:nonzero;fill:#4e87ea;fill-opacity:1"/><path d="M18.523 8.273c.055.008.055.008.098.028-.039.039-.082.082-.125.12v-.046l-.05-.027c.03-.04.03-.04.077-.075m0 0" style="stroke:none;fill-rule:nonzero;fill:#5189eb;fill-opacity:1"/><path d="m14.86 7.977.074.023c-.02.05-.02.05-.051.102-.055.02-.055.02-.102.023.028-.05.051-.098.078-.148m0 0" style="stroke:none;fill-rule:nonzero;fill:#4d8eea;fill-opacity:1"/><path d="M20.504 5.988q.029.038.05.074c-.03.04-.03.04-.074.075-.054-.008-.054-.008-.101-.024zm0 0" style="stroke:none;fill-rule:nonzero;fill:#6181d7;fill-opacity:1"/><path d="M20.305 4.176v.047q-.062.029-.125.05c-.008-.03-.016-.066-.028-.097.063-.031.086-.02.153 0m0 0" style="stroke:none;fill-rule:nonzero;fill:#6678e0;fill-opacity:1"/><path d="M12.2 34.762c.03.008.066.02.097.027v.148l-.024-.074-.074.024zm0 0" style="stroke:none;fill-rule:nonzero;fill:#6861e3;fill-opacity:1"/><path d="M6.828 26.71h.024l.023.25h-.047q-.029-.098-.05-.198h.05zm0 0" style="stroke:none;fill-rule:nonzero;fill:#9554d4;fill-opacity:1"/><path d="M15.738 25.07a1 1 0 0 0 .047.051c-.008.067-.008.067-.023.125l-.024-.05h-.078c.012-.048.012-.048.027-.098zm0 0" style="stroke:none;fill-rule:nonzero;fill:#6a74db;fill-opacity:1"/><path d="M5.797 24.824h.074q.017.06.027.125l-.074.024c-.008-.051-.02-.098-.027-.149m0 0" style="stroke:none;fill-rule:nonzero;fill:#786fe8;fill-opacity:1"/><path d="M23.367 21.344c0 .097-.035.129-.101.199h-.051a.6.6 0 0 1 .152-.2m0 0" style="stroke:none;fill-rule:nonzero;fill:#fcc246;fill-opacity:1"/><path d="M15.082 21.145c.102.12.102.12.102.152h-.125v-.125q.01-.011.023-.027m0 0" style="stroke:none;fill-rule:nonzero;fill:#4c90ef;fill-opacity:1"/><path d="m6.902 19.035.102.098q-.017.036-.027.074-.049-.023-.102-.05a1 1 0 0 0 .027-.122m0 0" style="stroke:none;fill-rule:nonzero;fill:#776adc;fill-opacity:1"/><path d="M11.168 14.363c.05.02.05.02.102.051l.023.074-.074.024c-.051-.075-.051-.075-.051-.149m0 0" style="stroke:none;fill-rule:nonzero;fill:#7f67d9;fill-opacity:1"/><path d="m2.938 7.754.097.023q-.034.075-.074.149l-.023-.074-.051-.024a.5.5 0 0 1 .05-.074m0 0" style="stroke:none;fill-rule:nonzero;fill:#6178db;fill-opacity:1"/><path d="M6.047 7.504h.101l-.023.125h-.078l-.024-.074zm0 0" style="stroke:none;fill-rule:nonzero;fill:#716dd7;fill-opacity:1"/><path d="M6.2 7.105c.05.012.05.012.1.028a1 1 0 0 0-.05.097h-.074zm0 0" style="stroke:none;fill-rule:nonzero;fill:#6684ea;fill-opacity:1"/><path d="M18.145 5.27q.029.01.05.023v.05h-.05l-.024.075h-.05l-.024-.074q.048-.04.098-.074m0 0" style="stroke:none;fill-rule:nonzero;fill:#647de3;fill-opacity:1"/><path d="m5.672 4.473.074.023c-.02.05-.02.05-.05.102l-.075.023c.024-.121.024-.121.05-.148m0 0" style="stroke:none;fill-rule:nonzero;fill:#646ede;fill-opacity:1"/><path d="M7.402 4.223h.051v.05h.05c-.007.016-.015.036-.023.051h-.027l-.023.172h-.028zm0 0" style="stroke:none;fill-rule:nonzero;fill:#696cd5;fill-opacity:1"/><path d="M20.656 3.95q.049.027.102.05c-.028.023-.051.05-.078.074l-.125-.047zm0 0" style="stroke:none;fill-rule:nonzero;fill:#5186ed;fill-opacity:1"/><path d="M6.875 3.676h.152l.024.078c-.043.016-.043.016-.098.023-.043-.035-.043-.035-.078-.074zm0 0" style="stroke:none;fill-rule:nonzero;fill:#7372e9;fill-opacity:1"/><path d="m22.512 3.355.152.024v.05l-.125.024a.5.5 0 0 1-.05-.074zm0 0" style="stroke:none;fill-rule:nonzero;fill:#6b79e5;fill-opacity:1"/><path d="m7.355 2.86.024.046-.024.051h-.078v.098L7.18 3.03c.03-.05.03-.05.074-.097h.074a.4.4 0 0 1 .027-.075m0 0" style="stroke:none;fill-rule:nonzero;fill:#6b76eb;fill-opacity:1"/><path d="M12.45 33.246h.05c-.008.05-.02.098-.027.149l-.098-.024q.012-.034.023-.074h.051zm0 0" style="stroke:none;fill-rule:nonzero;fill:#4292f0;fill-opacity:1"/><path d="m12.824 31.805-.023.152a1 1 0 0 0-.102-.027v-.075c.074-.05.074-.05.125-.05m0 0" style="stroke:none;fill-rule:nonzero;fill:#776dd4;fill-opacity:1"/><path d="M13.027 30.984q.035.017.075.028c-.016.039-.036.082-.051.125q-.038-.017-.074-.028c.02-.093.02-.093.05-.125m0 0" style="stroke:none;fill-rule:nonzero;fill:#726bdd;fill-opacity:1"/><path d="M8.031 30.863h.102l.023.121q-.048.017-.101.028zm0 0" style="stroke:none;fill-rule:nonzero;fill:#756fdd;fill-opacity:1"/><path d="m7.305 28.3.023.052h.05v.148h-.05q-.023-.083-.05-.172c.007-.008.019-.015.027-.027m0 0" style="stroke:none;fill-rule:nonzero;fill:#4d90f5;fill-opacity:1"/><path d="m7.129 27.832.098.023-.024.172a.4.4 0 0 1-.074-.195m0 0" style="stroke:none;fill-rule:nonzero;fill:#438ef5;fill-opacity:1"/><path d="M5.195 23.805h.125v.148h-.05q-.035-.072-.075-.148m0 0" style="stroke:none;fill-rule:nonzero;fill:#8f59e5;fill-opacity:1"/><path d="M4.793 23.035a.6.6 0 0 1 .125.05c.008.024.02.048.027.075l-.101.024a2 2 0 0 0-.051-.149m0 0" style="stroke:none;fill-rule:nonzero;fill:#ae3bae;fill-opacity:1"/><path d="M11.871 22.465h.05q.014.072.024.148h-.074zm0 0" style="stroke:none;fill-rule:nonzero;fill:#657ada;fill-opacity:1"/><path d="m8.684 21.07.05.028a1 1 0 0 1 .024.148c-.04-.035-.082-.066-.125-.101.027-.047.027-.047.05-.075m0 0" style="stroke:none;fill-rule:nonzero;fill:#7b69cd;fill-opacity:1"/><path d="M3.664 20.75q.026.023.05.047c-.007.055-.007.055-.026.101-.032-.035-.063-.066-.098-.101q.036-.023.074-.047m0 0" style="stroke:none;fill-rule:nonzero;fill:#6e7ceb;fill-opacity:1"/><path d="M3.465 20.352c.023.03.047.066.074.097a1 1 0 0 0-.102.028 1 1 0 0 0-.05-.102c.027-.008.05-.016.078-.023m0 0" style="stroke:none;fill-rule:nonzero;fill:#6b76dc;fill-opacity:1"/><path d="M12.2 17.246c.05.008.05.008.097.024v.097c-.047-.008-.047-.008-.098-.023a.4.4 0 0 1-.027-.074q.01-.012.027-.024m0 0" style="stroke:none;fill-rule:nonzero;fill:#6868d4;fill-opacity:1"/><path d="M1.984 16.102v.148h-.101v-.125c.05-.023.05-.023.101-.023m0 0" style="stroke:none;fill-rule:nonzero;fill:#5e6ae2;fill-opacity:1"/><path d="M2.207 9.395c.055.078.059.105.05.195H2.16zm0 0" style="stroke:none;fill-rule:nonzero;fill:#9050d2;fill-opacity:1"/><path d="M18.121 8.848q.037.034.074.074-.036.034-.074.074-.036-.011-.074-.027.034-.061.074-.121m0 0" style="stroke:none;fill-rule:nonzero;fill:#7873db;fill-opacity:1"/><path d="M14.531 8.422h.051v.05h-.05a1 1 0 0 1-.052.102h-.05l-.024-.074a.2.2 0 0 1 .051-.027q.023.01.05.027zm0 0" style="stroke:none;fill-rule:nonzero;fill:#3b8bec;fill-opacity:1"/><path d="M14.078 8.176c.04.023.04.023.078.05q-.01.062-.027.122c-.04-.032-.04-.032-.074-.075.008-.054.008-.054.023-.097m0 0" style="stroke:none;fill-rule:nonzero;fill:#6e73e1;fill-opacity:1"/><path d="M15.535 6.559c.063.011.063.011.125.027.008.016.02.031.027.047-.027.039-.027.039-.05.078q-.051-.076-.102-.152m0 0" style="stroke:none;fill-rule:nonzero;fill:#627cdd;fill-opacity:1"/><path d="M20.305 6.188c.02.042.02.042.023.097-.047.059-.047.059-.098.102-.011-.114-.011-.114.036-.172.011-.008.027-.016.039-.027m0 0" style="stroke:none;fill-rule:nonzero;fill:#626fe2;fill-opacity:1"/><path d="M4.492 5.59q.026.01.051.027v.074c-.063.04-.063.04-.125.075 0-.09.02-.11.074-.176m0 0" style="stroke:none;fill-rule:nonzero;fill:#4991ec;fill-opacity:1"/><path d="m18.848 4.895-.024.074c-.066.031-.066.031-.125.05v-.097a.5.5 0 0 1 .149-.027m0 0" style="stroke:none;fill-rule:nonzero;fill:#677bda;fill-opacity:1"/><path d="m24.195 3.207.051.098-.176.023v-.047c.063-.043.063-.043.125-.074m0 0" style="stroke:none;fill-rule:nonzero;fill:#6a76db;fill-opacity:1"/><path d="M17.293 25.543h.023v.273h-.023zm0 0" style="stroke:none;fill-rule:nonzero;fill:#ffdc49;fill-opacity:1"/><path d="M1.68 14.586h.027v.25H1.68zm0 0" style="stroke:none;fill-rule:nonzero;fill:#7754ec;fill-opacity:1"/><path d="M10.566 14.09h.2v.023h-.2zm0 0" style="stroke:none;fill-rule:nonzero;fill:#8659e5;fill-opacity:1"/><path d="M1.68 11.805h.027V12H1.68zm0 0" style="stroke:none;fill-rule:nonzero;fill:#4c6df1;fill-opacity:1"/><path d="M9.234 2.809h.204v.023h-.204zm0 0" style="stroke:none;fill-rule:nonzero;fill:#6879f7;fill-opacity:1"/><path d="M15.785 23.383h.027v.172h-.027zm0 0" style="stroke:none;fill-rule:nonzero;fill:#5a83f1;fill-opacity:1"/><path d="M15.785 24.797h.027v.152h-.027zm0 0" style="stroke:none;fill-rule:nonzero;fill:#5d8eef;fill-opacity:1"/><path d="M9.664 15.656h.024v.121h-.024zm0 0" style="stroke:none;fill-rule:nonzero;fill:#5276ea;fill-opacity:1"/><path d="M22.54 15.504h.023v.125h-.024zm0 0" style="stroke:none;fill-rule:nonzero;fill:#ffd367;fill-opacity:1"/><path d="M30.168 10.91h.023v.121h-.023zm0 0" style="stroke:none;fill-rule:nonzero;fill:#ffd350;fill-opacity:1"/><path d="m22.336 18.387.027.101Zm0 0" style="stroke:none;fill-rule:nonzero;fill:#ffce48;fill-opacity:1"/><path d="m30.145 15.879.023.098Zm0 0" style="stroke:none;fill-rule:nonzero;fill:#ffd93e;fill-opacity:1"/><path d="m30.168 15.754.023.098Zm0 0" style="stroke:none;fill-rule:nonzero;fill:#ffd95c;fill-opacity:1"/><path d="m5.32 15.629.028.101Zm0 0" style="stroke:none;fill-rule:nonzero;fill:#6c84d9;fill-opacity:1"/><path d="m1.855 10.684.028.101Zm0 0" style="stroke:none;fill-rule:nonzero;fill:#7954e4;fill-opacity:1"/><path d="m1.883 10.586.023.098Zm0 0" style="stroke:none;fill-rule:nonzero;fill:#954de2;fill-opacity:1"/><path d="m26.879 9.27.027.097Zm0 0" style="stroke:none;fill-rule:nonzero;fill:#ffd22c;fill-opacity:1"/><path d="m22.59 3.328.074.027Zm0 0" style="stroke:none;fill-rule:nonzero;fill:#7760dd;fill-opacity:1"/><path d="m23.117 3.207.074.023Zm0 0" style="stroke:none;fill-rule:nonzero;fill:#934dc1;fill-opacity:1"/><path d="m7.102 3.008.078.023Zm0 0" style="stroke:none;fill-rule:nonzero;fill:#6b88ff;fill-opacity:1"/></svg>