<?xml version="1.0" encoding="UTF-8"?>
<svg version="1.1" xmlns="http://www.w3.org/2000/svg" width="1275" height="1650">
<path d="M0 0 C8.06907803 2.26734424 13.43857339 7.02450101 18.36328125 13.6640625 C21.34856207 19.63462414 21.28218664 30.17502072 19.59375 36.5859375 C18.34035239 39.08434879 16.92063257 41.34279715 15.36328125 43.6640625 C14.07820409 45.84322525 12.80861767 48.03156338 11.55078125 50.2265625 C11.20990479 50.81356934 10.86902832 51.40057617 10.51782227 52.00537109 C7.48932334 57.27863824 4.89438135 62.71267537 2.35302734 68.23388672 C0.52119501 72.21216215 -1.37009734 76.13861829 -3.38330078 80.02807617 C-7.71776665 88.42821254 -11.50794204 97.056046 -15.26171875 105.7265625 C-15.53358002 106.35323822 -15.80544128 106.97991394 -16.08554077 107.62557983 C-20.10454067 116.90667729 -23.91093973 126.2619252 -27.63671875 135.6640625 C-28.23594278 137.14885618 -28.83599381 138.63331688 -29.4375 140.1171875 C-34.76982337 153.42824658 -39.1994019 167.03395676 -43.63671875 180.6640625 C-44.20180759 182.3789113 -44.76691023 184.09375555 -45.33203125 185.80859375 C-63.69654705 242.0943371 -74.88941371 305.1824379 -72.63671875 364.6640625 C-72.59562988 365.80697754 -72.55454102 366.94989258 -72.51220703 368.12744141 C-71.28616924 399.16225732 -67.61915603 429.70678523 -61.19921875 460.1015625 C-61.01825653 460.97176025 -60.83729431 461.84195801 -60.65084839 462.73852539 C-57.61061736 477.20347261 -53.30044152 490.8049321 -46.76171875 504.1015625 C-46.07511891 505.52584798 -45.38893323 506.95033318 -44.703125 508.375 C-44.18903076 509.43605957 -44.18903076 509.43605957 -43.66455078 510.51855469 C-42.64170945 512.65364487 -41.64839968 514.80004069 -40.6640625 516.953125 C-34.8515523 529.6307592 -28.13067682 541.67042986 -20.890625 553.5859375 C-19.81727124 555.36482909 -18.78515525 557.16849134 -17.76171875 558.9765625 C-12.61833995 567.98272374 -7.13579661 576.53667114 -0.93115234 584.84106445 C3.0986308 590.24593618 6.91542535 595.77974386 10.65942383 601.38598633 C12.99171411 604.83798721 15.34734945 607.76531415 18.36328125 610.6640625 C20.21552266 612.98913347 21.99446003 615.35980537 23.77734375 617.73828125 C25.22829838 619.76579543 25.22829838 619.76579543 27.36328125 620.6640625 C27.63140625 621.2415625 27.89953125 621.8190625 28.17578125 622.4140625 C29.40318308 624.73966597 30.85507252 626.24536957 32.74609375 628.046875 C34.86567651 630.16645776 36.81899569 632.41536979 38.80078125 634.6640625 C41.33704333 637.51313024 43.8054629 640.17511028 46.80078125 642.5390625 C49.36328125 644.6640625 49.36328125 644.6640625 50.29296875 646.5859375 C51.54883799 649.02434056 52.95329457 650.28360213 55.05078125 652.0390625 C55.76234375 652.64234375 56.47390625 653.245625 57.20703125 653.8671875 C57.91859375 654.46015625 58.63015625 655.053125 59.36328125 655.6640625 C63.54156778 659.19163228 67.49381272 662.79459397 71.36328125 666.6640625 C72.69154552 667.81576812 74.02530377 668.96115553 75.36328125 670.1015625 C77.84488493 672.23462634 79.99413519 674.32167262 81.98828125 676.9140625 C84.63523305 679.97895405 86.73994656 680.92207467 90.36328125 682.6640625 C93.45592486 684.88342365 96.41018073 687.26334049 99.36328125 689.6640625 C99.935625 690.12296875 100.50796875 690.581875 101.09765625 691.0546875 C103.46872922 692.98576755 105.66496292 694.9734796 107.80078125 697.1640625 C112.66490281 701.90954695 117.24012304 704.74654529 123.65625 706.91796875 C126.00782951 707.94577581 126.88576236 709.60838404 128.36328125 711.6640625 C130.0212746 712.41178499 131.68377681 713.153283 133.37890625 713.8125 C136.91357323 715.32934528 140.33821008 717.2832922 143.36328125 719.6640625 C143.36328125 720.3240625 143.36328125 720.9840625 143.36328125 721.6640625 C144.10320312 721.9425 144.843125 722.2209375 145.60546875 722.5078125 C148.10806153 723.5570582 150.20400983 724.71426662 152.48828125 726.1640625 C157.64787222 729.31932071 162.9517854 732.15971307 168.30078125 734.9765625 C169.56269287 735.64365234 169.56269287 735.64365234 170.85009766 736.32421875 C171.64722168 736.741875 172.4443457 737.15953125 173.265625 737.58984375 C173.98226318 737.96536377 174.69890137 738.34088379 175.43725586 738.7277832 C177.49868091 739.78161761 177.49868091 739.78161761 180.36328125 740.6640625 C180.62882812 740.10203125 180.894375 739.54 181.16796875 738.9609375 C182.36328125 736.6640625 182.36328125 736.6640625 183.87109375 734.4296875 C189.13612818 726.23963394 189.39783969 719.0745652 188.36328125 709.6640625 C187.63730609 706.6823788 186.72381686 704.43955514 185.36328125 701.6640625 C185.03328125 700.6740625 184.70328125 699.6840625 184.36328125 698.6640625 C183.70328125 698.6640625 183.04328125 698.6640625 182.36328125 698.6640625 C181.13671875 696.828125 181.13671875 696.828125 179.73828125 694.2890625 C176.44692891 688.61707183 172.54394088 683.69950384 168.36328125 678.6640625 C166.85797195 676.83508601 165.35781056 675.00185826 163.86328125 673.1640625 C163.19296875 672.349375 162.52265625 671.5346875 161.83203125 670.6953125 C160.36328125 668.6640625 160.36328125 668.6640625 160.36328125 666.6640625 C159.37328125 666.3340625 158.38328125 666.0040625 157.36328125 665.6640625 C156.45156897 663.70037452 155.55769967 661.72730705 154.73046875 659.7265625 C152.96249075 655.76629178 150.91871709 651.98112264 148.86328125 648.1640625 C146.1921912 643.18352007 143.64522016 638.23597715 141.453125 633.0234375 C139.63100021 629.07876591 137.49265503 625.28741679 135.35522461 621.50537109 C132.38381122 616.10665743 130.39161648 610.47106809 128.36328125 604.6640625 C127.64989848 602.70472095 126.93370744 600.7463998 126.21484375 598.7890625 C122.63495265 588.96284574 119.09059384 579.13312116 115.92578125 569.1640625 C115.69133301 568.43058594 115.45688477 567.69710937 115.21533203 566.94140625 C113.82545315 562.47900133 112.73388666 558.01337022 111.80834961 553.43164062 C111.52054204 551.65030778 111.52054204 551.65030778 110.36328125 550.6640625 C110.13813305 548.76638479 109.91586651 546.86792231 109.7421875 544.96484375 C109.42482979 542.57386923 109.42482979 542.57386923 108.39453125 540.078125 C106.96303813 535.3390152 106.67781467 530.64766824 106.30078125 525.7265625 C106.14490431 523.80064494 105.9873885 521.87485922 105.828125 519.94921875 C105.76230225 519.10238525 105.69647949 518.25555176 105.62866211 517.38305664 C105.43098446 515.3577246 105.15998483 513.33929115 104.85131836 511.32788086 C104.33618671 507.46065694 104.14993763 503.65214913 104.08984375 499.7578125 C104.07111961 498.63320869 104.07111961 498.63320869 104.05201721 497.48588562 C103.70636906 471.62472645 105.56993349 446.24105341 114.36328125 421.6640625 C114.92982422 419.98183594 114.92982422 419.98183594 115.5078125 418.265625 C118.69367993 409.63501423 123.35920393 403.47053762 131.61328125 399.1640625 C137.70025916 396.80916949 144.4425777 396.43596943 150.6953125 398.39453125 C159.0742021 402.31963249 165.1058002 408.4559896 168.26953125 417.15625 C169.026705 419.64735162 169.70594604 422.14491079 170.36328125 424.6640625 C170.64816406 425.65148437 170.93304688 426.63890625 171.2265625 427.65625 C173.1887644 434.48655938 174.97013824 441.36886797 176.796875 448.23632812 C177.24740234 449.91952148 177.24740234 449.91952148 177.70703125 451.63671875 C177.97708984 452.65000244 178.24714844 453.66328613 178.52539062 454.70727539 C179.38146502 457.72823024 180.35305897 460.69148988 181.36328125 463.6640625 C181.69585937 464.71980469 182.0284375 465.77554687 182.37109375 466.86328125 C185.74886844 477.40996936 189.94561672 487.51531834 194.36328125 497.6640625 C194.70294922 498.45312988 195.04261719 499.24219727 195.39257812 500.05517578 C199.61493 509.85937957 204.12444831 519.35181496 209.36328125 528.6640625 C210.08299536 529.97473146 210.80169564 531.28595752 211.51953125 532.59765625 C216.08935524 540.89925668 220.95119279 548.8751187 226.36328125 556.6640625 C226.93691406 557.50195312 227.51054687 558.33984375 228.1015625 559.203125 C234.8424915 568.96584975 241.91831196 578.37556102 249.73339844 587.30004883 C251.595285 589.44824947 253.24025361 591.41204741 254.4921875 593.9765625 C255.30476584 596.03230277 255.30476584 596.03230277 258.36328125 596.6640625 C259.765625 598.08984375 259.765625 598.08984375 261.30078125 599.9765625 C264.52073361 603.77199571 267.91040782 607.33292553 271.42578125 610.8515625 C272.1671936 611.59950073 272.1671936 611.59950073 272.92358398 612.36254883 C275.35086894 614.78099415 277.76841278 616.99011892 280.4453125 619.14453125 C296.34830078 632.87602715 307.2401235 657.1287782 316.36328125 675.6640625 C316.87930908 676.70892822 316.87930908 676.70892822 317.40576172 677.77490234 C325.13717225 693.69297799 329.61112476 710.88054048 333.67578125 728.0390625 C333.91820557 729.04694824 334.16062988 730.05483398 334.41040039 731.09326172 C338.05616907 747.08519228 338.77253166 762.94712145 338.73828125 779.2890625 C338.73746552 780.76306519 338.73746552 780.76306519 338.7366333 782.2668457 C338.69252525 799.7054066 337.42665156 816.4692828 334.36328125 833.6640625 C334.15429199 834.88432129 333.94530273 836.10458008 333.72998047 837.36181641 C329.85492363 859.52365833 323.94545837 881.25288564 313.24609375 901.16015625 C311.42213802 904.5545303 309.76719948 907.99694227 308.11328125 911.4765625 C301.90716545 923.88879409 293.95212927 935.38053586 286.2277832 946.88598633 C270.47022311 970.35782619 255.66712777 994.18243853 243.36328125 1019.6640625 C242.8528125 1020.71464844 242.34234375 1021.76523438 241.81640625 1022.84765625 C233.55376318 1040.28361004 227.38604256 1058.05401431 222.36328125 1076.6640625 C221.94030762 1078.19256836 221.94030762 1078.19256836 221.50878906 1079.75195312 C211.89711633 1114.71345372 206.39265954 1150.57563427 203.36328125 1186.6640625 C203.21076904 1188.2586731 203.21076904 1188.2586731 203.05517578 1189.88549805 C201.96383809 1202.46506161 202.12209562 1215.10992386 202.11328125 1227.7265625 C202.1116095 1228.98784973 202.10993774 1230.24913696 202.10821533 1231.54864502 C202.10653641 1252.74161478 203.09452124 1273.60188523 205.36328125 1294.6640625 C205.57985254 1296.81883748 205.79484651 1298.97377195 206.0078125 1301.12890625 C206.42759163 1305.31141961 206.87777254 1309.48868761 207.36328125 1313.6640625 C179.37604922 1314.80899472 146.36103272 1308.44769509 124.9765625 1289.2578125 C121.90912566 1286.2275117 119.14212572 1282.95680286 116.36328125 1279.6640625 C115.77804687 1279.00535156 115.1928125 1278.34664062 114.58984375 1277.66796875 C114.04070312 1277.04792969 113.4915625 1276.42789062 112.92578125 1275.7890625 C112.43207031 1275.23476562 111.93835938 1274.68046875 111.4296875 1274.109375 C110.36328125 1272.6640625 110.36328125 1272.6640625 110.36328125 1270.6640625 C109.70328125 1270.6640625 109.04328125 1270.6640625 108.36328125 1270.6640625 C108.09773438 1269.93703125 107.8321875 1269.21 107.55859375 1268.4609375 C106.36422153 1265.66626263 104.92313396 1263.43742331 103.23828125 1260.9140625 C95.40965235 1247.59884221 91.37612927 1231.88478604 89.7277832 1216.62792969 C88.29552738 1204.97413057 84.94457647 1193.66947263 81.94189453 1182.34326172 C81.72454651 1181.52303528 81.50719849 1180.70280884 81.28326416 1179.85772705 C80.85955871 1178.25944522 80.43489795 1176.6614163 80.00921631 1175.06365967 C78.74335686 1170.26633201 77.63349472 1165.47942575 76.82250977 1160.58081055 C76.42698837 1158.60461574 76.42698837 1158.60461574 75.38183594 1156.72241211 C74.21641934 1154.36727612 73.74560068 1152.23528431 73.25 1149.65625 C73.05688232 1148.67970459 72.86376465 1147.70315918 72.66479492 1146.69702148 C72.36085815 1145.13383179 72.36085815 1145.13383179 72.05078125 1143.5390625 C70.44921552 1135.59258295 68.69186927 1127.77268072 66.43896484 1119.98730469 C64.55209702 1113.44102858 62.85551351 1106.85310391 61.17556763 1100.25091553 C57.95812563 1087.62122288 54.5913036 1075.03696334 51.11328125 1062.4765625 C50.90490631 1061.72006409 50.69653137 1060.96356567 50.48184204 1060.18414307 C48.56344148 1053.22843554 46.62889702 1046.30567648 44.25390625 1039.48828125 C42.43265986 1034.17480845 41.29002397 1028.83548718 40.171875 1023.33691406 C38.73540832 1016.81209377 36.77679234 1010.43633167 34.86328125 1004.0390625 C32.40969658 995.79178695 30.00624126 987.5527239 28.00170898 979.18188477 C27.21244553 976.06919871 26.21438222 973.0598053 25.1640625 970.02734375 C24.25327891 967.33942145 23.432947 964.63116725 22.61328125 961.9140625 C21.07682057 956.8656917 19.42923711 951.86486786 17.73681641 946.86669922 C15.23337491 939.47129536 12.87522823 932.15575018 11.09765625 924.546875 C8.71863153 915.20793753 5.27167486 906.22149204 1.4921875 897.37109375 C-0.75290367 891.98753602 -2.47856513 886.62950351 -3.63671875 880.9140625 C-4.3940751 877.29627763 -5.5909559 874.77362204 -7.63671875 871.6640625 C-8.11109375 870.5296875 -8.58546875 869.3953125 -9.07421875 868.2265625 C-10.61055804 864.72370892 -12.50475586 861.82524886 -14.63671875 858.6640625 C-14.63671875 858.0040625 -14.63671875 857.3440625 -14.63671875 856.6640625 C-15.29671875 856.6640625 -15.95671875 856.6640625 -16.63671875 856.6640625 C-17.22453125 855.3028125 -17.22453125 855.3028125 -17.82421875 853.9140625 C-18.0975 853.28242187 -18.37078125 852.65078125 -18.65234375 852 C-19.39262754 850.24329481 -20.10706206 848.47566174 -20.80859375 846.703125 C-21.22625 845.65898438 -21.64390625 844.61484375 -22.07421875 843.5390625 C-22.46480469 842.54648437 -22.85539063 841.55390625 -23.2578125 840.53125 C-24.71256889 837.50634579 -26.53358923 835.26406172 -28.63671875 832.6640625 C-29.59160364 830.33540454 -30.05662533 828.12945952 -30.63671875 825.6640625 C-31.29671875 825.6640625 -31.95671875 825.6640625 -32.63671875 825.6640625 C-34.56237692 821.87914817 -36.43557071 818.14506868 -38.07421875 814.2265625 C-39.70305253 810.51282149 -41.60708198 807.08063761 -43.6484375 803.58203125 C-44.63671875 801.6640625 -44.63671875 801.6640625 -44.63671875 799.6640625 C-45.29671875 799.6640625 -45.95671875 799.6640625 -46.63671875 799.6640625 C-49.0683248 796.29722335 -49.63671875 794.93055886 -49.63671875 790.6640625 C-50.29671875 790.6640625 -50.95671875 790.6640625 -51.63671875 790.6640625 C-51.90484375 790.03242187 -52.17296875 789.40078125 -52.44921875 788.75 C-55.1102372 782.67517499 -58.12472191 776.94562012 -61.47583008 771.22363281 C-64.50357773 766.00811615 -67.17943982 760.65013249 -69.8293457 755.23510742 C-71.60644622 751.63241979 -73.46034018 748.17317792 -75.63671875 744.7890625 C-77.63671875 741.6640625 -77.63671875 741.6640625 -77.63671875 739.6640625 C-78.29671875 739.6640625 -78.95671875 739.6640625 -79.63671875 739.6640625 C-79.97703125 738.81585937 -80.31734375 737.96765625 -80.66796875 737.09375 C-85.01773587 726.56638808 -90.2486536 716.85137985 -96.44921875 707.2890625 C-98.01573467 704.84073298 -99.12606459 702.53544007 -100.07421875 699.7890625 C-101.49870732 695.71234935 -103.575889 692.27429185 -105.83984375 688.609375 C-111.29619915 679.6656968 -116.32267968 670.46863866 -121.01171875 661.1015625 C-121.49390869 660.13839111 -121.49390869 660.13839111 -121.98583984 659.15576172 C-124.01524199 655.0487149 -125.83353874 650.87632979 -127.63671875 646.6640625 C-128.57854757 644.73923202 -129.53655483 642.82222109 -130.51171875 640.9140625 C-132.89915953 636.18610852 -135.12537754 631.41324249 -137.28515625 626.578125 C-138.55463338 623.84104426 -139.90085088 621.15308768 -141.27587891 618.46777344 C-144.1380697 612.8765874 -146.58056746 607.31374684 -148.61328125 601.36328125 C-149.73765045 598.39786476 -151.11030477 595.6642094 -152.57421875 592.8515625 C-155.42990866 587.3132548 -157.52833895 581.66823172 -159.55078125 575.78125 C-160.3603817 573.457289 -161.20047603 571.22104884 -162.19921875 568.9765625 C-163.44660467 566.10215147 -164.52444595 563.23900545 -165.57421875 560.2890625 C-166.78627459 556.90540661 -168.06747889 553.61414035 -169.57421875 550.3515625 C-175.88231827 536.34171357 -179.68082554 521.46373361 -183.63671875 506.6640625 C-183.97670898 505.40609863 -184.31669922 504.14813477 -184.66699219 502.85205078 C-191.01471514 479.2741368 -195.11420822 455.74863339 -197.1328125 431.3828125 C-197.48126643 427.20432462 -197.93307315 423.04715033 -198.421875 418.8828125 C-204.16452008 367.13911824 -203.46714184 311.48024135 -190.63671875 260.7265625 C-190.26546875 259.21739258 -190.26546875 259.21739258 -189.88671875 257.67773438 C-189.14517381 254.67100139 -188.3914356 251.66751255 -187.63671875 248.6640625 C-187.38051758 247.62822021 -187.12431641 246.59237793 -186.86035156 245.52514648 C-182.02300862 225.99337808 -175.69518773 207.11196257 -167.63671875 188.6640625 C-167.34104004 187.97328613 -167.04536133 187.28250977 -166.74072266 186.57080078 C-158.84803643 168.17527926 -149.52194942 150.47308275 -138.63671875 133.6640625 C-138.25306152 133.07077148 -137.8694043 132.47748047 -137.47412109 131.86621094 C-132.51559841 124.22894611 -127.36877343 116.79058602 -121.83984375 109.55078125 C-120.37367248 107.62968095 -118.92556267 105.69465814 -117.49609375 103.74609375 C-104.48023157 86.02485694 -89.25452813 70.21367659 -73.76171875 54.6640625 C-72.44216187 53.33749634 -72.44216187 53.33749634 -71.09594727 51.98413086 C-66.10366092 47.00414428 -61.01082992 42.22849558 -55.63671875 37.6640625 C-55.1041748 37.20451172 -54.57163086 36.74496094 -54.02294922 36.27148438 C-43.06442343 26.81706997 -31.69795144 17.92852254 -20.13671875 9.2265625 C-19.47824951 8.730354 -18.81978027 8.23414551 -18.14135742 7.72290039 C-16.3157427 6.35677986 -14.47930076 5.00717877 -12.63671875 3.6640625 C-11.58097656 2.890625 -10.52523437 2.1171875 -9.4375 1.3203125 C-5.78918172 -0.83713095 -4.03617699 -0.69191606 0 0 Z " fill="#5686DE" transform="translate(261.63671875,155.3359375)"/>
<path d="M0 0 C0.7528125 0.56847656 1.505625 1.13695312 2.28125 1.72265625 C3.15265625 2.36589844 4.0240625 3.00914062 4.921875 3.671875 C6.33726562 4.71794922 6.33726562 4.71794922 7.78125 5.78515625 C9.86135385 7.20656055 11.94484548 8.6230166 14.03125 10.03515625 C24.81982643 17.45469646 34.90260328 25.76976734 44.84375 34.27734375 C46.37607773 35.58552779 47.91262391 36.88984954 49.48828125 38.14550781 C50.95299185 39.31779083 52.37144761 40.54738332 53.78125 41.78515625 C53.78125 42.44515625 53.78125 43.10515625 53.78125 43.78515625 C54.36680664 44.04401611 54.95236328 44.30287598 55.55566406 44.56958008 C57.9500896 45.87737349 59.49218329 47.28251726 61.390625 49.234375 C62.06351563 49.91822266 62.73640625 50.60207031 63.4296875 51.30664062 C64.12320312 52.02142578 64.81671875 52.73621094 65.53125 53.47265625 C69.58061583 57.62595067 73.61809793 61.70573216 78.0234375 65.484375 C81.05232358 68.09237644 83.66495507 70.7689583 86.15625 73.91015625 C86.90777344 74.85632813 87.65929688 75.8025 88.43359375 76.77734375 C89.20832031 77.76992187 89.98304688 78.7625 90.78125 79.78515625 C91.58691406 80.79835938 92.39257812 81.8115625 93.22265625 82.85546875 C99.1380818 90.35484413 104.49485213 98.15614211 109.71191406 106.15332031 C111.08830965 108.25373768 112.49752043 110.33132829 113.90625 112.41015625 C119.89093018 121.42932216 125.31604085 130.56383607 130.0546875 140.30078125 C132.26673926 144.7649219 134.67098795 149.11098915 137.10546875 153.45703125 C139.29012526 157.79578963 141.0361253 162.25490405 142.78125 166.78515625 C143.11213623 167.64061035 143.44302246 168.49606445 143.78393555 169.37744141 C145.8380438 174.71460298 147.86229239 180.06319546 149.88427734 185.41259766 C150.61436042 187.34372103 151.34771234 189.27360834 152.08203125 191.203125 C153.99062818 196.30991137 155.5693051 201.42061748 156.9453125 206.6953125 C157.72622708 209.58177715 158.58753595 212.43539445 159.46728516 215.29296875 C165.4962096 235.06671314 169.6315193 255.36999603 172.78125 275.78515625 C173.04035156 277.45336426 173.04035156 277.45336426 173.3046875 279.15527344 C177.70139445 307.93299481 179.22918085 336.71673078 179.78125 365.78515625 C179.80461426 366.94917969 179.82797852 368.11320312 179.85205078 369.3125 C179.99370356 377.47360443 179.95939244 385.6249274 179.78125 393.78515625 C179.76511658 394.52830078 179.74898315 395.27144531 179.73236084 396.03710938 C179.15859466 420.74146062 176.87783591 444.60806566 172.1529541 468.86309814 C171.5927771 471.75973755 171.06035943 474.66147354 170.5234375 477.5625 C169.37240999 483.65852428 168.10804828 489.72512229 166.78125 495.78515625 C166.5435791 496.87683105 166.3059082 497.96850586 166.06103516 499.09326172 C161.50015353 519.71828906 155.36198345 539.73349693 148.78125 559.78515625 C148.45297714 560.7894014 148.45297714 560.7894014 148.11807251 561.81393433 C145.66340002 569.31350884 143.14016957 576.76516553 140.21875 584.09765625 C139.91775391 584.86126465 139.61675781 585.62487305 139.30664062 586.41162109 C138.72161911 587.89407572 138.13497577 589.37589179 137.54638672 590.85693359 C136.921854 592.43081981 136.30544377 594.00792709 135.69140625 595.5859375 C132.91305934 602.68085771 129.82025554 609.64002698 126.73876953 616.60693359 C125.78227353 618.78282787 124.84097777 620.96478606 123.90234375 623.1484375 C119.0633 634.33255391 113.58111212 645.07237357 107.78125 655.78515625 C106.77332064 657.66269768 105.76551187 659.54030387 104.7578125 661.41796875 C99.37966476 671.3986921 93.89065679 681.23009705 87.78125 690.78515625 C87.17667969 691.74550781 86.57210938 692.70585938 85.94921875 693.6953125 C82.3148716 699.45167498 78.60739678 705.15440931 74.78125 710.78515625 C74.26046875 711.55214844 73.7396875 712.31914063 73.203125 713.109375 C68.72885031 719.60125486 63.96521573 725.85399296 59.11816406 732.06884766 C57.77976172 733.78706688 56.44822776 735.51044905 55.1171875 737.234375 C46.85542365 747.89230448 38.41518549 758.49986233 28.69238281 767.87255859 C26.9194754 769.64682491 25.29863022 771.47259572 23.6796875 773.38671875 C18.48190744 779.37413105 12.74778555 784.82999961 7.07617188 790.36328125 C2.72175108 794.66166484 -1.30311716 798.92177671 -4.8659668 803.89990234 C-6.23495402 805.80773836 -7.67149713 807.63569207 -9.1484375 809.4609375 C-9.62982178 810.05592041 -10.11120605 810.65090332 -10.60717773 811.26391602 C-11.09774658 811.86905029 -11.58831543 812.47418457 -12.09375 813.09765625 C-16.41016012 818.45150407 -20.54774766 823.89226063 -24.54296875 829.4921875 C-25.95197301 831.42012574 -27.40417001 833.23423488 -28.96875 835.03515625 C-30.99410231 837.51058685 -32.48270205 839.9695347 -34.01171875 842.765625 C-35.48070678 845.22344639 -37.14153001 847.48255406 -38.84375 849.78515625 C-51.05802609 866.38577458 -61.65584019 884.10736169 -72.21875 901.78515625 C-72.61964844 902.45329346 -73.02054688 903.12143066 -73.43359375 903.80981445 C-84.17094809 921.73077248 -94.68040236 940.00616941 -103.02734375 959.1796875 C-104.65370096 962.73634409 -106.40271836 966.22729393 -108.15625 969.72265625 C-108.5063916 970.42124756 -108.8565332 971.11983887 -109.21728516 971.83959961 C-110.69787663 974.78590051 -112.18787927 977.7256835 -113.70703125 980.65234375 C-116.25118253 985.58311371 -118.25514793 990.50618134 -120.0769043 995.74536133 C-121.22399047 998.79910729 -122.54195421 1001.69652501 -123.9453125 1004.640625 C-127.48393297 1012.24057396 -130.60083778 1019.98047781 -133.65625 1027.78515625 C-133.94077026 1028.50981079 -134.22529053 1029.23446533 -134.51843262 1029.9810791 C-139.15002679 1041.79920457 -143.42662856 1053.66912574 -147.21875 1065.78515625 C-147.93078364 1068.01959689 -148.64303783 1070.25396725 -149.35546875 1072.48828125 C-157.71672097 1098.89280078 -165.13531377 1125.40363203 -170.33984375 1152.6171875 C-170.61006348 1154.01602173 -170.61006348 1154.01602173 -170.88574219 1155.44311523 C-171.22481388 1157.21306312 -171.55533182 1158.98467792 -171.87597656 1160.75805664 C-172.25957107 1162.78028499 -172.73058412 1164.78559472 -173.21875 1166.78515625 C-173.87875 1167.11515625 -174.53875 1167.44515625 -175.21875 1167.78515625 C-185.64744802 1163.23445166 -195.01792027 1156.40506106 -204.21875 1149.78515625 C-205.105625 1149.16640625 -205.9925 1148.54765625 -206.90625 1147.91015625 C-209.74593457 1145.30071638 -211.90694086 1142.38768437 -214.21875 1139.30859375 C-216.31435724 1136.6645268 -218.57027592 1134.28096258 -220.90625 1131.84765625 C-231.58809652 1120.22567757 -239.43422651 1106.12059697 -247.23632812 1092.47753906 C-248.07679149 1091.02970306 -248.95827765 1089.6058136 -249.84765625 1088.1875 C-251.42512979 1085.42355063 -252.49994787 1082.64792447 -253.59375 1079.66015625 C-255.14741602 1075.5185928 -256.77322236 1071.47484682 -258.65625 1067.47265625 C-263.94292135 1056.02643634 -267.8876506 1044.03412353 -271.77099609 1032.05517578 C-272.96515235 1028.39863997 -274.18134953 1024.86976401 -275.73828125 1021.34765625 C-277.70171205 1016.622989 -278.93632496 1011.79367574 -280.21875 1006.84765625 C-281.70156985 1001.15192895 -283.20738686 995.56775641 -285.35253906 990.08422852 C-287.44537368 984.52948682 -289.22791641 978.85724973 -291.09375 973.22265625 C-291.73194199 971.30053492 -292.3705607 969.37855638 -293.00953674 967.45669556 C-293.4372262 966.1677743 -293.86343339 964.87836029 -294.28819275 963.58847046 C-295.34199116 960.39309792 -296.42089663 957.21263758 -297.54125977 954.03955078 C-300.45636184 945.69048798 -302.51712134 937.48983634 -304.04956055 928.80566406 C-304.40652766 926.78358342 -304.77901566 924.76484785 -305.15429688 922.74609375 C-306.59599587 914.88500772 -307.73739228 907.02641628 -308.74707031 899.09765625 C-309.12342705 896.4545878 -309.5890679 893.93593207 -310.22265625 891.34765625 C-311.82911948 884.60207796 -312.4081865 877.66791139 -313.15625 870.78515625 C-313.28356506 869.62398788 -313.28356506 869.62398788 -313.41345215 868.43936157 C-316.65435801 838.64111674 -319.19063787 808.77948651 -318.21875 778.78515625 C-318.18152832 777.60695313 -318.14430664 776.42875 -318.10595703 775.21484375 C-317.19179713 750.83724626 -313.45939378 726.37628585 -307.21875 702.78515625 C-306.90292969 701.51285156 -306.58710937 700.24054687 -306.26171875 698.9296875 C-298.09745865 667.13008079 -283.04413554 638.06355925 -265.12646484 610.70947266 C-261.63918471 605.36385691 -258.21616678 599.97700126 -254.78125 594.59765625 C-253.49113622 592.58317269 -252.20078074 590.5688439 -250.91015625 588.5546875 C-250.29374268 587.59071045 -249.6773291 586.6267334 -249.04223633 585.63354492 C-247.84735515 583.76707302 -246.6493852 581.90257408 -245.44799805 580.0402832 C-241.08331378 573.24622801 -236.957798 566.33233353 -232.90625 559.34765625 C-232.28685547 558.28611328 -231.66746094 557.22457031 -231.02929688 556.13085938 C-227.46891051 550.04189187 -227.46891051 550.04189187 -224.21875 543.78515625 C-223.55875 543.78515625 -222.89875 543.78515625 -222.21875 543.78515625 C-222.13109375 542.95628906 -222.0434375 542.12742187 -221.953125 541.2734375 C-221.06960576 537.0767211 -219.44056037 533.7522964 -217.46875 529.97265625 C-217.10676514 529.26197998 -216.74478027 528.55130371 -216.37182617 527.8190918 C-214.51221443 524.1907126 -212.58184936 520.62232863 -210.53125 517.09765625 C-207.41213511 511.61557553 -205.3807813 505.6923837 -203.21875 499.78515625 C-201.67239528 495.56792692 -200.06695968 491.38673294 -198.34375 487.23828125 C-188.84569081 464.14006339 -182.18561044 440.01201605 -175.43481445 415.99633789 C-173.68535083 409.91013888 -170.9009027 406.88738404 -165.90625 402.97265625 C-159.94411158 400.33822299 -153.18884393 401.62240524 -147.21875 403.78515625 C-140.71141409 406.66729811 -135.91923836 410.48269799 -131.21875 415.78515625 C-130.620625 416.42453125 -130.0225 417.06390625 -129.40625 417.72265625 C-127.57266634 420.90730156 -126.99523068 424.20139926 -126.21875 427.78515625 C-125.55875 427.78515625 -124.89875 427.78515625 -124.21875 427.78515625 C-123.22875 431.25015625 -123.22875 431.25015625 -122.21875 434.78515625 C-121.55875 434.78515625 -120.89875 434.78515625 -120.21875 434.78515625 C-118.65984151 445.16682342 -117.80143807 455.56368465 -117.09375 466.03515625 C-117.00625488 467.30117676 -116.91875977 468.56719727 -116.82861328 469.87158203 C-113.59936729 519.66174702 -124.78010542 570.14724602 -140.96875 616.97265625 C-141.23800293 617.75527832 -141.50725586 618.53790039 -141.78466797 619.34423828 C-143.34181863 623.7282163 -145.15340394 627.84437293 -147.3359375 631.9543457 C-148.25828821 633.86715211 -148.87927894 635.74740456 -149.46875 637.78515625 C-151.80279953 645.15718155 -155.6581032 651.94857204 -159.21875 658.78515625 C-159.71503906 659.74679687 -160.21132813 660.7084375 -160.72265625 661.69921875 C-166.1913917 672.01347194 -172.34269317 682.1109494 -179.40625 691.41015625 C-187.15972346 701.85296837 -193.51926439 713.77872957 -191.84375 727.078125 C-190.65255528 732.23748714 -188.44683925 737.00010848 -186.21875 741.78515625 C-179.96199913 741.38116075 -175.2701599 738.28204338 -169.96875 735.22265625 C-168.17395301 734.19687638 -166.37717386 733.17455436 -164.578125 732.15625 C-163.78889648 731.7017749 -162.99966797 731.2472998 -162.18652344 730.77905273 C-160.21875 729.78515625 -160.21875 729.78515625 -158.21875 729.78515625 C-158.21875 729.12515625 -158.21875 728.46515625 -158.21875 727.78515625 C-157.65027344 727.55441406 -157.08179688 727.32367187 -156.49609375 727.0859375 C-151.84195638 725.12016663 -147.90322894 722.97722606 -143.88671875 719.92578125 C-142.21875 718.78515625 -142.21875 718.78515625 -138.90625 717.47265625 C-134.65403049 715.78496824 -131.49236835 712.90584708 -128 710.0078125 C-125.12087566 707.70693925 -122.15225708 705.65306386 -119.09375 703.59765625 C-107.57123232 695.77702084 -96.99287112 686.71180401 -86.83203125 677.2109375 C-84.56838804 675.10970815 -82.26234107 673.09335098 -79.90625 671.09765625 C-76.69444076 668.3070679 -73.93012393 665.30726694 -71.18359375 662.0625 C-69.29704517 659.87590393 -67.34427832 657.76420759 -65.36865234 655.65820312 C-58.86799128 648.7017929 -52.92153252 641.40659513 -47.21875 633.78515625 C-46.74324707 633.15013184 -46.26774414 632.51510742 -45.77783203 631.86083984 C-32.55126875 614.02950579 -21.53590336 594.7950294 -12.30859375 574.62109375 C-8.66087973 566.66982515 -4.74755776 559.08987734 -0.22460938 551.59985352 C3.46350887 545.44477831 6.83951412 539.14714779 10.15625 532.78515625 C10.65608398 531.8297998 11.15591797 530.87444336 11.67089844 529.89013672 C14.18701255 525.03204873 16.57598947 520.1523337 18.7578125 515.13525391 C19.92353994 512.45841889 21.12732173 509.80013677 22.33203125 507.140625 C27.78908407 494.99453497 32.8369373 482.85150194 36.98632812 470.1953125 C37.55703177 468.46497271 38.14059362 466.73885388 38.73242188 465.015625 C41.27952853 457.55589068 43.40973598 450.03401289 45.40625 442.41015625 C46.00093197 440.15190274 46.59723228 437.89407464 47.1953125 435.63671875 C47.58130615 434.16452881 47.58130615 434.16452881 47.97509766 432.66259766 C48.53858012 430.65133045 49.16353925 428.65673344 49.83374023 426.6784668 C50.61733851 424.28567546 51.1643029 422.11983189 51.52734375 419.640625 C51.64078125 418.89079346 51.75421875 418.14096191 51.87109375 417.3684082 C51.98582031 416.57781006 52.10054687 415.78721191 52.21875 414.97265625 C53.04275874 409.50046043 53.89386721 404.04328096 54.90869141 398.60302734 C64.87155303 344.9759334 64.1281074 289.84410244 54.23828125 236.26416016 C53.79530755 233.86140644 53.37872051 231.45545175 52.96875 229.046875 C51.887395 222.82423154 50.62674645 216.87319735 48.44921875 210.9375 C47.68986478 208.49069277 47.36630319 206.13757561 47.03125 203.59765625 C45.82335999 195.71143222 43.19409893 188.29574376 40.71484375 180.73828125 C39.07765318 175.74670576 37.54469452 170.72996607 36.04345703 165.69604492 C32.24221597 152.95655265 27.8681665 140.89399582 22.1875 128.8515625 C20.92861355 126.10649065 19.79922473 123.3539754 18.71875 120.53515625 C17.45251828 117.26405764 15.99494648 114.30891931 14.21875 111.28515625 C11.54710785 106.67574896 10.10108667 101.925008 8.78125 96.78515625 C8.12125 96.78515625 7.46125 96.78515625 6.78125 96.78515625 C6.53890625 96.14449219 6.2965625 95.50382812 6.046875 94.84375 C4.42961702 90.66998037 2.81519298 86.64338851 0.53125 82.78515625 C-1.21875 79.78515625 -1.21875 79.78515625 -1.21875 77.78515625 C-1.87875 77.78515625 -2.53875 77.78515625 -3.21875 77.78515625 C-3.45166748 77.23335693 -3.68458496 76.68155762 -3.92456055 76.11303711 C-6.29292612 70.6283704 -8.96822943 65.473261 -12.03125 60.34765625 C-12.68601318 59.24188232 -12.68601318 59.24188232 -13.35400391 58.11376953 C-16.28455861 53.21372709 -19.39827608 48.49943041 -22.75 43.875 C-24.79978218 40.95842163 -26.49421666 37.90258191 -28.21875 34.78515625 C-28.54875 34.45515625 -28.87875 34.12515625 -29.21875 33.78515625 C-30.26487537 14.49265816 -30.26487537 14.49265816 -24.71875 7.03515625 C-19.55609111 1.46558828 -7.26055099 -3.97540732 0 0 Z " fill="#FACC4D" transform="translate(975.21875,153.21484375)"/>
<path d="M0 0 C1.06863281 0.00902344 2.13726563 0.01804688 3.23828125 0.02734375 C4.04652344 0.03894531 4.85476563 0.05054688 5.6875 0.0625 C6.0175 1.3825 6.3475 2.7025 6.6875 4.0625 C2.05993653 7.25271421 -2.61683022 10.27717965 -7.5 13.0625 C-17.31381073 18.71898398 -26.79249864 24.92935141 -36.3125 31.0625 C-37.36920898 31.74022461 -37.36920898 31.74022461 -38.44726562 32.43164062 C-40.15696396 33.5306056 -41.86011083 34.63974619 -43.5625 35.75 C-44.90054688 36.62205078 -44.90054688 36.62205078 -46.265625 37.51171875 C-48.55406783 39.0692735 -48.55406783 39.0692735 -50.3125 42.0625 C-51.3025 42.0625 -52.2925 42.0625 -53.3125 42.0625 C-53.6425 43.0525 -53.9725 44.0425 -54.3125 45.0625 C-56.54296875 46.71875 -56.54296875 46.71875 -59.5 48.5625 C-66.17062681 52.8806454 -72.33322327 57.67846862 -78.53027344 62.64355469 C-80.2832772 64.03923385 -82.04871417 65.41708769 -83.8203125 66.7890625 C-90.91361529 72.28778527 -97.82610724 77.9513098 -104.59375 83.84667969 C-106.8623312 85.81715026 -109.14554637 87.76521366 -111.45727539 89.68481445 C-123.40096059 99.68907461 -134.28893648 110.77096953 -145.25830078 121.81268311 C-147.34233751 123.90760489 -149.43200994 125.99685844 -151.52179718 128.08604145 C-153.56058773 130.1251056 -155.59675024 132.16677729 -157.63206482 134.20931053 C-159.05066171 135.63255189 -160.47068235 137.0543737 -161.89074707 138.47615051 C-166.89515666 143.51717364 -171.71432781 148.64840486 -176.3125 154.0625 C-176.99647858 154.85502419 -176.99647858 154.85502419 -177.6942749 155.66355896 C-184.82681191 163.9318361 -191.62782496 172.43068902 -198.3125 181.0625 C-199.15489771 182.14457033 -199.99734457 183.22660242 -200.83984375 184.30859375 C-220.94346124 210.20417508 -238.91091342 237.37076924 -255.08349609 265.89697266 C-256.28406321 268.01239385 -257.49460124 270.12182965 -258.70703125 272.23046875 C-263.55340942 280.70014503 -268.03284478 289.30643482 -272.32861328 298.06689453 C-273.63804424 300.72279742 -274.97401954 303.36497173 -276.30908203 306.00805664 C-277.99327737 309.35145075 -279.65553087 312.70554506 -281.3125 316.0625 C-281.61591309 316.67512695 -281.91932617 317.28775391 -282.23193359 317.91894531 C-289.64106714 332.97711959 -295.9192589 348.55438879 -302.3125 364.0625 C-302.74191895 365.10100098 -303.17133789 366.13950195 -303.61376953 367.20947266 C-307.3101712 376.17544236 -310.81127411 385.07138209 -313.51953125 394.390625 C-314.19523625 396.66738471 -314.94938868 398.85220435 -315.8125 401.0625 C-317.10364536 404.36976539 -318.11965762 407.72007497 -319.125 411.125 C-321.06771273 417.56305963 -323.48740532 423.73346856 -326.04296875 429.9453125 C-326.86330201 431.95954616 -327.62474395 433.99923184 -328.3125 436.0625 C-328.9725 436.0625 -329.6325 436.0625 -330.3125 436.0625 C-333.46979335 425.89158043 -336.50257062 415.68729537 -339.48828125 405.46484375 C-339.82472656 404.32144531 -340.16117188 403.17804688 -340.5078125 402 C-340.95664795 400.46666016 -340.95664795 400.46666016 -341.41455078 398.90234375 C-342.2615902 396.06692322 -342.2615902 396.06692322 -343.42529297 393.44140625 C-344.3125 391.0625 -344.3125 391.0625 -344.3125 387.0625 C-344.9725 387.0625 -345.6325 387.0625 -346.3125 387.0625 C-352.75684348 369.56136415 -352.75684348 369.56136415 -354.3125 363.0625 C-354.9725 363.0625 -355.6325 363.0625 -356.3125 363.0625 C-358.84559233 358.42046103 -360.77765599 354.41094008 -361.3125 349.0625 C-362.3025 348.7325 -363.2925 348.4025 -364.3125 348.0625 C-365.234375 346.05859375 -365.234375 346.05859375 -366.0625 343.5 C-367.45945098 339.73938671 -368.85593595 337.14915431 -371.625 334.25 C-374.70995182 331.00130339 -376.65763227 327.74380008 -378.6875 323.75 C-382.89911598 315.65288875 -388.12514494 308.94363188 -394.84765625 302.76953125 C-395.4514209 302.20492188 -396.05518555 301.6403125 -396.67724609 301.05859375 C-397.86995414 299.95694432 -399.08481811 298.87869575 -400.32275391 297.828125 C-401.98046875 296.30078125 -401.98046875 296.30078125 -404.3125 293.0625 C-403.85332883 285.41521288 -399.17870308 278.60919271 -395.5625 272 C-394.89343381 270.76279805 -394.22440765 269.52557445 -393.55541992 268.28833008 C-387.64121094 257.41622191 -381.25704406 246.84902318 -374.71337891 236.34521484 C-372.83872301 233.29048626 -371.06528505 230.18851325 -369.3125 227.0625 C-368.6525 227.0625 -367.9925 227.0625 -367.3125 227.0625 C-367.23902344 226.3715625 -367.16554688 225.680625 -367.08984375 224.96875 C-366.09608741 221.25339968 -364.14111379 218.59601777 -361.875 215.5625 C-361.42833984 214.95156494 -360.98167969 214.34062988 -360.52148438 213.71118164 C-356.29805005 207.96467502 -351.95180761 202.31177279 -347.57128906 196.68457031 C-345.8569998 194.47554435 -344.15832969 192.2547093 -342.45898438 190.03417969 C-340.41800001 187.37086753 -338.3651158 184.71685985 -336.3125 182.0625 C-335.54164063 181.05960938 -334.77078125 180.05671875 -333.9765625 179.0234375 C-333.26242187 178.10820312 -332.54828125 177.19296875 -331.8125 176.25 C-330.86890625 175.03376953 -330.86890625 175.03376953 -329.90625 173.79296875 C-329.3803125 173.22191406 -328.854375 172.65085937 -328.3125 172.0625 C-327.6525 172.0625 -326.9925 172.0625 -326.3125 172.0625 C-326.044375 171.47984375 -325.77625 170.8971875 -325.5 170.296875 C-324.29769009 168.03463399 -322.97424087 166.25673682 -321.3125 164.3125 C-320.796875 163.69890625 -320.28125 163.0853125 -319.75 162.453125 C-318.3125 161.0625 -318.3125 161.0625 -316.3125 161.0625 C-316.0546875 160.49015625 -315.796875 159.9178125 -315.53125 159.328125 C-314.19884058 156.85121005 -312.66193882 154.9283834 -310.8125 152.8125 C-310.2040625 152.10609375 -309.595625 151.3996875 -308.96875 150.671875 C-307.3125 149.0625 -307.3125 149.0625 -305.3125 149.0625 C-305.3125 148.4025 -305.3125 147.7425 -305.3125 147.0625 C-303.84375 145.8359375 -303.84375 145.8359375 -301.8125 144.4375 C-297.7584242 141.52318216 -294.39088808 138.23353433 -290.9765625 134.6015625 C-289.3125 133.0625 -289.3125 133.0625 -287.3125 133.0625 C-287.3125 132.4025 -287.3125 131.7425 -287.3125 131.0625 C-285.71915761 129.62700274 -284.05998918 128.26422673 -282.375 126.9375 C-278.74834078 124.03895523 -275.19228964 121.11533381 -271.75 118 C-256.81126128 104.63100615 -240.26807161 92.96407131 -223.30517578 82.31982422 C-221.43059365 81.13701388 -219.57119624 79.93380994 -217.71484375 78.72265625 C-175.50302845 51.41451127 -129.3175605 32.38625467 -81.3125 18.0625 C-79.57004823 17.53342163 -77.82782196 17.00359939 -76.0859375 16.47265625 C-63.02998502 12.52390786 -49.84452756 9.31738915 -36.49609375 6.52490234 C-30.73074694 5.30402054 -24.97605366 4.0326785 -19.21850586 2.77563477 C-17.79356812 2.46517212 -17.79356812 2.46517212 -16.33984375 2.1484375 C-15.49156006 1.9632959 -14.64327637 1.7781543 -13.76928711 1.58740234 C-12.55317749 1.32757568 -12.55317749 1.32757568 -11.3125 1.0625 C-10.44802246 0.8771167 -9.58354492 0.6917334 -8.69287109 0.50073242 C-5.75973487 -0.03926548 -2.97999009 -0.03274714 0 0 Z " fill="#5786DE" transform="translate(918.3125,130.9375)"/>
<path d="M0 0 C3.47037299 0.00315753 6.93988782 -0.02039726 10.41015625 -0.0456543 C25.4045373 -0.0877422 39.91982045 1.06477674 54.73828125 3.31567383 C55.74652954 3.46540649 56.75477783 3.61513916 57.7935791 3.76940918 C77.01099093 6.63856102 95.16024683 11.93264292 113.24609375 18.99145508 C116.4070403 20.19006904 119.56773734 21.20875466 122.80078125 22.19067383 C128.3375441 23.98353037 133.23024914 26.57909469 138.29956055 29.38891602 C141.83944123 31.34226868 145.31035448 33.03524437 149.11328125 34.44067383 C152.37715888 35.65839847 155.08643166 37.09206503 157.94921875 39.07348633 C161.03501897 41.17452428 164.13915349 43.21484774 167.31640625 45.17504883 C175.83624251 50.44082476 184.02518567 55.83203161 191.8671875 62.06567383 C194.59313579 64.20192718 197.37698659 66.17862798 200.23828125 68.12817383 C203.78892903 70.57570773 206.8084151 73.12729008 209.73828125 76.31567383 C212.26689257 78.99753431 214.33570209 80.85742561 217.73828125 82.31567383 C217.73828125 83.30567383 217.73828125 84.29567383 217.73828125 85.31567383 C218.51171875 85.68692383 218.51171875 85.68692383 219.30078125 86.06567383 C220.10515625 86.47817383 220.90953125 86.89067383 221.73828125 87.31567383 C223.37796875 88.12004883 223.37796875 88.12004883 225.05078125 88.94067383 C229.55977881 91.52827842 232.51573764 95.31073381 235.73828125 99.31567383 C238.16785033 102.27671114 240.58840251 105.16579509 243.30078125 107.87817383 C245.65933408 110.23672666 247.65691858 112.71397048 249.73828125 115.31567383 C250.51429688 116.08395508 251.2903125 116.85223633 252.08984375 117.64379883 C263.10519803 128.75663412 273.05729729 142.29419789 281.73828125 155.31567383 C281.66203861 159.5024464 279.9014509 161.60152538 276.9928894 164.48860168 C276.47316559 164.9845433 275.95344177 165.48048492 275.41796875 165.99145508 C274.88108429 166.52030807 274.34419983 167.04916107 273.79104614 167.59403992 C272.07434653 169.28181861 270.34462171 170.95542887 268.61328125 172.62817383 C266.35646321 174.82831526 264.10505875 177.03392569 261.85546875 179.24145508 C261.31353882 179.77183884 260.77160889 180.3022226 260.21325684 180.84867859 C256.16945388 184.82919502 252.405708 188.98601833 248.73828125 193.31567383 C247.32447764 194.8391691 245.90822479 196.36039953 244.48828125 197.87817383 C241.74785736 200.87624441 239.25622034 203.92978243 236.9296875 207.25317383 C236.45112305 207.93436279 235.97255859 208.61555176 235.47949219 209.31738281 C234.5433098 210.66774433 233.62267514 212.02904902 232.71972656 213.40185547 C229.45843641 218.1138953 229.45843641 218.1138953 225.40625 219.24926758 C224.52582031 219.27118164 223.64539063 219.2930957 222.73828125 219.31567383 C219.19523195 214.79799931 216.31170581 210.46252294 213.73828125 205.31567383 C212.74828125 204.65567383 211.75828125 203.99567383 210.73828125 203.31567383 C208.88618216 200.61469599 207.64698614 198.07374178 206.48828125 195.00317383 C205.21938632 191.89168148 203.50997033 189.7830336 201.23828125 187.31567383 C198.05770664 183.85679894 196.54332085 180.67785286 194.73828125 176.31567383 C191.75878721 171.63156541 188.68102727 167.22679354 184.73828125 163.31567383 C183.76192113 162.01652798 182.80425885 160.70317201 181.86328125 159.37817383 C180.08915266 156.97198468 178.65696218 155.25103559 176.30078125 153.37817383 C173.90891977 151.45301703 172.44487017 149.74764107 170.61328125 147.31567383 C167.23505696 142.83601536 163.55180994 138.74559971 159.73608398 134.64257812 C157.14696002 131.85716516 154.61796481 129.04323117 152.17578125 126.12817383 C150.04901157 123.3114494 150.04901157 123.3114494 147.73828125 122.31567383 C147.73828125 121.32567383 147.73828125 120.33567383 147.73828125 119.31567383 C147.09890625 119.04754883 146.45953125 118.77942383 145.80078125 118.50317383 C143.73828125 117.31567383 143.73828125 117.31567383 142.73828125 114.31567383 C141.74828125 113.98567383 140.75828125 113.65567383 139.73828125 113.31567383 C138.56341576 112.17437593 137.39390469 111.02666651 136.26171875 109.84301758 C134.47455034 108.05126669 132.59030421 106.40791951 130.67578125 104.75317383 C124.83402593 99.67338659 124.83402593 99.67338659 122.73828125 97.31567383 C122.73828125 96.65567383 122.73828125 95.99567383 122.73828125 95.31567383 C122.18140625 95.06817383 121.62453125 94.82067383 121.05078125 94.56567383 C118.33895775 93.09982329 116.12301785 91.26111684 113.73828125 89.31567383 C113.07828125 88.98567383 112.41828125 88.65567383 111.73828125 88.31567383 C111.73828125 87.65567383 111.73828125 86.99567383 111.73828125 86.31567383 C111.20460938 86.08235352 110.6709375 85.8490332 110.12109375 85.60864258 C107.03020722 83.93145661 104.36255251 81.80131104 101.61328125 79.62817383 C96.10744552 75.33636256 90.49239845 71.270007 84.73828125 67.31567383 C83.68511719 66.57188477 82.63195312 65.8280957 81.546875 65.06176758 C76.24455031 61.32263188 70.95998213 57.72212184 65.21875 54.67895508 C62.62417842 53.25296219 60.1056392 51.72106841 57.58349609 50.17138672 C44.32936919 42.05505741 30.52324386 35.63461685 16.19140625 29.64013672 C15.23878906 29.23657959 14.28617187 28.83302246 13.3046875 28.41723633 C12.44818604 28.05968262 11.59168457 27.70212891 10.70922852 27.33374023 C8.73828125 26.31567383 8.73828125 26.31567383 7.73828125 24.31567383 C5.33182648 23.2802104 5.33182648 23.2802104 2.3671875 22.36254883 C1.2438501 21.99339355 0.1205127 21.62423828 -1.03686523 21.24389648 C-2.84973022 20.66067627 -2.84973022 20.66067627 -4.69921875 20.06567383 C-7.1784383 19.2559399 -9.65760487 18.44604374 -12.13671875 17.63598633 C-13.35488281 17.24056641 -14.57304687 16.84514648 -15.828125 16.43774414 C-18.77132226 15.47593138 -21.70627823 14.49519865 -24.63671875 13.49536133 C-32.06218076 10.96295607 -39.39182447 8.62081759 -47.07421875 6.95629883 C-49.26171875 6.31567383 -49.26171875 6.31567383 -51.26171875 4.31567383 C-34.57894669 -0.18810767 -17.16704487 -0.03251334 0 0 Z " fill="#5886DE" transform="translate(321.26171875,121.684326171875)"/>
<path d="M0 0 C0 7.79028568 -11.9981231 16.21761978 -17.1875 21.4375 C-18.07630859 22.34693359 -18.96511719 23.25636719 -19.88085938 24.19335938 C-20.73873047 25.05638672 -21.59660156 25.91941406 -22.48046875 26.80859375 C-23.25285889 27.59032959 -24.02524902 28.37206543 -24.82104492 29.17749023 C-26.98000732 30.98327783 -28.24998014 31.61886718 -31 32 C-30.34 30.68 -29.68 29.36 -29 28 C-28.34 28 -27.68 28 -27 28 C-26.7421875 27.42765625 -26.484375 26.8553125 -26.21875 26.265625 C-24.88634058 23.78871005 -23.34943882 21.8658834 -21.5 19.75 C-20.8915625 19.04359375 -20.283125 18.3371875 -19.65625 17.609375 C-18 16 -18 16 -16 16 C-16 15.34 -16 14.68 -16 14 C-14.53125 12.7734375 -14.53125 12.7734375 -12.5 11.375 C-7.85516439 8.02408288 -3.94594363 4.13484519 0 0 Z " fill="#6C8BD4" transform="translate(629,264)"/>
<path d="M0 0 C0.66 0.33 1.32 0.66 2 1 C-12.19 15.19 -26.38 29.38 -41 44 C-41 41 -41 41 -39.70239258 39.37768555 C-39.10579834 38.8031665 -38.5092041 38.22864746 -37.89453125 37.63671875 C-37.24033203 36.99669922 -36.58613281 36.35667969 -35.91210938 35.69726562 C-34.87280273 34.70243164 -34.87280273 34.70243164 -33.8125 33.6875 C-28.30301331 28.40422952 -28.30301331 28.40422952 -23.23046875 22.7109375 C-21.40093503 20.48730107 -19.71345672 18.74347946 -17.5 16.9375 C-11.30805317 11.6743452 -5.70252509 5.78076095 0 0 Z " fill="#757C94" transform="translate(793,230)"/>
<path d="M0 0 C0.33 0 0.66 0 1 0 C1.66 6.27 2.32 12.54 3 19 C-6.98734487 19.18844047 -16.1345606 18.70251034 -26 17 C-26 16.67 -26 16.34 -26 16 C-13.13 16.495 -13.13 16.495 0 17 C0 11.39 0 5.78 0 0 Z " fill="#6F7DAA" transform="translate(466,1450)"/>
<path d="M0 0 C3.28309285 3.5629019 4.04058395 7.52151262 5 12.125 C5.33603037 13.65289822 5.6745646 15.18024797 6.015625 16.70703125 C6.17998047 17.4438916 6.34433594 18.18075195 6.51367188 18.93994141 C7.3207751 22.35878527 8.37595633 25.68837941 9.484375 29.01953125 C10 31 10 31 10 35 C9.34 35 8.68 35 8 35 C0 6.82608696 0 6.82608696 0 0 Z " fill="#7F8CBB" transform="translate(430,578)"/>
<path d="M0 0 C0.66 0.33 1.32 0.66 2 1 C1.61506192 5.97244758 -0.91304263 8.44007933 -4.34765625 11.73828125 C-4.87894638 12.26391159 -5.41023651 12.78954193 -5.95762634 13.33110046 C-7.65006582 15.00122048 -9.35589996 16.65686477 -11.0625 18.3125 C-12.21510573 19.44503508 -13.36680942 20.57848899 -14.51757812 21.71289062 C-17.33471121 24.48601531 -20.16393728 27.24624293 -23 30 C-23 27 -23 27 -21.73071289 25.40600586 C-21.1505542 24.84792236 -20.57039551 24.28983887 -19.97265625 23.71484375 C-19.34552734 23.10189453 -18.71839844 22.48894531 -18.07226562 21.85742188 C-17.40904297 21.22384766 -16.74582031 20.59027344 -16.0625 19.9375 C-14.7596333 18.67793483 -13.45875274 17.416311 -12.16015625 16.15234375 C-11.57886963 15.59538818 -10.99758301 15.03843262 -10.39868164 14.46459961 C-8.89356 13.03237781 -8.89356 13.03237781 -8 11 C-7.34 11 -6.68 11 -6 11 C-5.7525 10.401875 -5.505 9.80375 -5.25 9.1875 C-4 7 -4 7 -1.875 5.5 C-1.25625 5.005 -0.6375 4.51 0 4 C0 2.68 0 1.36 0 0 Z " fill="#7E849C" transform="translate(601,276)"/>
<path d="M0 0 C0.66 0 1.32 0 2 0 C1.82621826 0.57540527 1.65243652 1.15081055 1.47338867 1.74365234 C-0.61908806 8.69290305 -2.6596509 15.65665006 -4.6875 22.625 C-5.00783203 23.72457031 -5.32816406 24.82414062 -5.65820312 25.95703125 C-6.439157 28.63791769 -7.21974932 31.31890883 -8 34 C-8.33 34 -8.66 34 -9 34 C-8.55254388 28.36205286 -7.66910549 23.56855822 -5.75390625 18.2578125 C-4.99152556 15.97462058 -4.4756436 13.73323296 -4 11.375 C-3.1519117 7.28548948 -1.76873475 3.77866061 0 0 Z " fill="#6C7CAD" transform="translate(492,1198)"/>
<path d="M0 0 C1 3 1 3 0.18310547 5.14135742 C-0.25114746 5.95451416 -0.68540039 6.7676709 -1.1328125 7.60546875 C-1.60976563 8.50716797 -2.08671875 9.40886719 -2.578125 10.33789062 C-3.08859375 11.27826172 -3.5990625 12.21863281 -4.125 13.1875 C-4.61226562 14.10853516 -5.09953125 15.02957031 -5.6015625 15.97851562 C-8.52914288 21.46383579 -11.64263463 26.76718327 -15 32 C-16 29 -16 29 -14.671875 26.328125 C-14.03765625 25.31234375 -13.4034375 24.2965625 -12.75 23.25 C-10.11243782 18.91128825 -7.98987062 14.67187016 -6 10 C-4.07326606 6.62072829 -2.0537829 3.30333367 0 0 Z " fill="#6E7DAA" transform="translate(576,1050)"/>
<path d="M0 0 C0.33 0.66 0.66 1.32 1 2 C-0.26342773 4.70556641 -0.26342773 4.70556641 -2.18359375 8.1015625 C-2.51794937 8.69802582 -2.85230499 9.29448914 -3.1967926 9.9090271 C-4.26955341 11.81867544 -5.35334731 13.72180027 -6.4375 15.625 C-7.16544728 16.91625329 -7.89267047 18.20791509 -8.61914062 19.5 C-10.40437342 22.67145482 -12.19955549 25.83715077 -14 29 C-15.12548828 25.27832031 -15.12548828 25.27832031 -13.99609375 22.7734375 C-13.48175781 21.98195313 -12.96742188 21.19046875 -12.4375 20.375 C-11.88578125 19.50359375 -11.3340625 18.6321875 -10.765625 17.734375 C-10.18296875 16.83203125 -9.6003125 15.9296875 -9 15 C-7.88732931 13.21360211 -6.78278138 11.42211217 -5.6875 9.625 C-5.19636719 8.83351563 -4.70523438 8.04203125 -4.19921875 7.2265625 C-2.91873309 5.07320233 -2.91873309 5.07320233 -2.45703125 2.7734375 C-2.30621094 2.18820312 -2.15539062 1.60296875 -2 1 C-1.34 0.67 -0.68 0.34 0 0 Z " fill="#6F7CA6" transform="translate(523,1137)"/>
<path d="M0 0 C0.66 0 1.32 0 2 0 C0.19442555 5.71765243 -1.85139692 11.30422997 -4.0625 16.875 C-4.3198291 17.52927979 -4.5771582 18.18355957 -4.84228516 18.85766602 C-6.02724253 21.81393168 -7.22520442 24.33780663 -9 27 C-8.76381277 19.91438321 -6.85685477 15.10582436 -3.47265625 8.89453125 C-1.99182035 5.98392275 -0.95614759 3.11787258 0 0 Z " fill="#6D7DAE" transform="translate(241,267)"/>
<path d="M0 0 C4.30979544 4.12241303 4.40037386 7.83671154 4.8125 13.625 C4.88919922 14.40746094 4.96589844 15.18992188 5.04492188 15.99609375 C5.46782475 22.1409235 4.12183676 25.70197024 1 31 C-0.15008586 27.15645142 0.50682234 25.71176433 2 22 C2.28867792 19.37194158 2.50404038 16.82089169 2.625 14.1875 C2.66367187 13.49462891 2.70234375 12.80175781 2.7421875 12.08789062 C2.83573568 10.39232985 2.91892364 8.69620288 3 7 C2.34 7 1.68 7 1 7 C0.67 4.69 0.34 2.38 0 0 Z " fill="#92A7E2" transform="translate(277,166)"/>
<path d="M0 0 C5.39269362 6.11171944 6.30960561 11.52216153 6.125 19.375 C6.11597656 20.11105469 6.10695313 20.84710937 6.09765625 21.60546875 C6.07430144 23.4037888 6.03843836 25.20193911 6 27 C5.67 27 5.34 27 5 27 C4.97421875 26.10539063 4.9484375 25.21078125 4.921875 24.2890625 C4.59034453 17.2214357 3.87402789 11.41297721 0.83984375 4.98828125 C0 3 0 3 0 0 Z " fill="#BDC3DF" transform="translate(445,854)"/>
<path d="M0 0 C0.33 0.66 0.66 1.32 1 2 C0.28735352 4.06298828 0.28735352 4.06298828 -0.87109375 6.5703125 C-1.48500977 7.91416016 -1.48500977 7.91416016 -2.11132812 9.28515625 C-2.54896484 10.22230469 -2.98660156 11.15945313 -3.4375 12.125 C-3.87126953 13.06988281 -4.30503906 14.01476563 -4.75195312 14.98828125 C-5.8276662 17.32884377 -6.91059513 19.66578661 -8 22 C-9.20716412 18.02190555 -8.5479428 16.36684833 -6.6875 12.625 C-5.18899462 9.52864081 -3.88599784 6.6519934 -2.8125 3.375 C-2 1 -2 1 0 0 Z " fill="#6E7DAA" transform="translate(507,1166)"/>
<path d="M0 0 C3.9252025 3.70090521 6.94580156 7.54959656 10 12 C9.67 12.66 9.34 13.32 9 14 C5.02337282 11.12799148 2.4109842 8.28619413 0 4 C0 2.68 0 1.36 0 0 Z " fill="#808EBA" transform="translate(260,741)"/>
<path d="M0 0 C2.73251686 3.27098341 4.21683758 6.59882422 5.75 10.5625 C6.42289063 12.26599609 6.42289063 12.26599609 7.109375 14.00390625 C8 17 8 17 7 20 C0 6.48275862 0 6.48275862 0 0 Z " fill="#7F88A6" transform="translate(579,836)"/>
<path d="M0 0 C4.16720946 6.25081419 4.50559884 12.68806698 5 20 C2.94550007 16.9182501 2.25524191 14.6904243 1.375 11.125 C0.98441406 9.58199219 0.98441406 9.58199219 0.5859375 8.0078125 C0.04698884 5.24120939 -0.11394368 2.80715804 0 0 Z " fill="#8CA3E4" transform="translate(303,1178)"/>
<path d="M0 0 C2.7839183 1.39195915 2.97898997 3.15575779 4 6 C4.99 4.02 5.98 2.04 7 0 C8 2 8 2 7.44140625 4.1640625 C7.15136719 4.97617187 6.86132812 5.78828125 6.5625 6.625 C6.27503906 7.44226563 5.98757813 8.25953125 5.69140625 9.1015625 C5.34916016 10.04128906 5.34916016 10.04128906 5 11 C4.34 11 3.68 11 3 11 C2.49632243 9.54293274 1.99717444 8.08429904 1.5 6.625 C1.2215625 5.81289063 0.943125 5.00078125 0.65625 4.1640625 C0 2 0 2 0 0 Z " fill="#7C95E0" transform="translate(585,556)"/>
<path d="M0 0 C0.22822613 3.95829688 -0.44949991 6.67851541 -2 10.3125 C-2.37125 11.19550781 -2.7425 12.07851563 -3.125 12.98828125 C-3.41375 13.65214844 -3.7025 14.31601562 -4 15 C-5.10176129 11.64783266 -4.89303058 9.24878922 -4.1875 5.8125 C-4.01605469 4.93207031 -3.84460938 4.05164063 -3.66796875 3.14453125 C-3.44753906 2.43683594 -3.22710938 1.72914063 -3 1 C-1 0 -1 0 0 0 Z " fill="#9DA8CE" transform="translate(600,536)"/>
<path d="M0 0 C3.58707329 3.38779144 6.49689539 6.73545141 9 11 C9 11.99 9 12.98 9 14 C6.5 12.1875 6.5 12.1875 4 10 C4 9.01 4 8.02 4 7 C3.34 7 2.68 7 2 7 C1.34 4.69 0.68 2.38 0 0 Z " fill="#7D8DB7" transform="translate(486,711)"/>
<path d="M0 0 C2.35716404 2.15454249 3.78966144 4.19719874 5.1875 7.0625 C5.53167969 7.75472656 5.87585938 8.44695313 6.23046875 9.16015625 C7 11 7 11 7 13 C4 12 4 12 2.83203125 10.29296875 C2.49558594 9.59816406 2.15914062 8.90335938 1.8125 8.1875 C1.46832031 7.50042969 1.12414062 6.81335938 0.76953125 6.10546875 C0 4 0 4 0 0 Z " fill="#7787B4" transform="translate(230,692)"/>
<path d="M0 0 C0.66 0 1.32 0 2 0 C2.50692692 1.5811292 3.00526443 3.16501383 3.5 4.75 C3.7784375 5.63171875 4.056875 6.5134375 4.34375 7.421875 C5 10 5 10 5 14 C4.34 14 3.68 14 3 14 C2.49307308 12.4188708 1.99473557 10.83498617 1.5 9.25 C1.2215625 8.36828125 0.943125 7.4865625 0.65625 6.578125 C0 4 0 4 0 0 Z " fill="#7281B1" transform="translate(435,599)"/>
<path d="M0 0 C0.67095703 0.58007812 0.67095703 0.58007812 1.35546875 1.171875 C1.96003906 1.69265625 2.56460937 2.2134375 3.1875 2.75 C3.82300781 3.29914062 4.45851563 3.84828125 5.11328125 4.4140625 C6.65368747 5.70889671 8.25673724 6.92889274 9.875 8.125 C12.21312978 10.18805569 12.42535376 11.05340972 13 14 C8.445213 10.19985226 4.04720741 6.34334454 0 2 C0 1.34 0 0.68 0 0 Z " fill="#9AA2BE" transform="translate(299,790)"/>
<path d="M0 0 C3.40458262 3.89095157 6.24177968 8.11365765 8 13 C7.67 13.66 7.34 14.32 7 15 C0.29612756 5.77448747 0.29612756 5.77448747 0 0 Z " fill="#7984AB" transform="translate(462,669)"/>
<path d="M0 0 C-1.59092052 4.13639336 -4.60474918 7.23213248 -8 10 C-8.66 10 -9.32 10 -10 10 C-8.50006099 6.10015857 -4.53875449 0 0 0 Z " fill="#6F8FE1" transform="translate(391,557)"/>
<path d="M0 0 C0.66 0 1.32 0 2 0 C1.88529863 1.75070517 1.75780972 3.50057536 1.625 5.25 C1.55539063 6.22453125 1.48578125 7.1990625 1.4140625 8.203125 C1.01534751 10.89633189 0.36492937 12.66963279 -1 15 C-1.02715383 13.25008666 -1.04646551 11.50005055 -1.0625 9.75 C-1.07410156 8.77546875 -1.08570313 7.8009375 -1.09765625 6.796875 C-1.01195577 4.34241322 -0.70706066 2.33831086 0 0 Z " fill="#6B7EB1" transform="translate(202,381)"/>
<path d="M0 0 C3.25548753 3.02295271 5.68977058 6.20462309 8 10 C8 10.66 8 11.32 8 12 C7.01 11.67 6.02 11.34 5 11 C5 10.01 5 9.02 5 8 C4.34 8 3.68 8 3 8 C0 2.25 0 2.25 0 0 Z " fill="#7988B6" transform="translate(478,699)"/>
<path d="M0 0 C1 2 1 2 0.00390625 5.0390625 C-0.47175781 6.22242188 -0.94742188 7.40578125 -1.4375 8.625 C-1.91058594 9.81351562 -2.38367188 11.00203125 -2.87109375 12.2265625 C-3.24363281 13.14179688 -3.61617187 14.05703125 -4 15 C-4.33 15 -4.66 15 -5 15 C-5 12.69 -5 10.38 -5 8 C-4.34 8 -3.68 8 -3 8 C-2.690625 6.865625 -2.38125 5.73125 -2.0625 4.5625 C-1 1 -1 1 0 0 Z " fill="#6E7CA9" transform="translate(231,294)"/>
<path d="M0 0 C2.93200474 2.85276137 5.64315404 5.65079784 8 9 C7.67 9.66 7.34 10.32 7 11 C3.17330957 7.57611908 1.27721526 4.99275057 0 0 Z " fill="#8E98BE" transform="translate(593,265)"/>
<path d="M0 0 C1.23593891 3.70781672 0.5678132 4.67510253 -0.9375 8.1875 C-1.31777344 9.08855469 -1.69804688 9.98960937 -2.08984375 10.91796875 C-2.54037109 11.94857422 -2.54037109 11.94857422 -3 13 C-3.33 13 -3.66 13 -4 13 C-4.28571429 5.57142857 -4.28571429 5.57142857 -2 2 C-1.34 2 -0.68 2 0 2 C0 1.34 0 0.68 0 0 Z " fill="#6C7DAD" transform="translate(614,495)"/>
<path d="M0 0 C0 3.53951266 -0.71931715 4.36464694 -2.8125 7.125 C-3.59560547 8.18074219 -3.59560547 8.18074219 -4.39453125 9.2578125 C-6 11 -6 11 -9 12 C-7.55575365 8.76138697 -5.74227753 6.38030837 -3.375 3.75 C-2.74335937 3.04359375 -2.11171875 2.3371875 -1.4609375 1.609375 C-0.97882812 1.07828125 -0.49671875 0.5471875 0 0 Z " fill="#A6AABE" transform="translate(556,329)"/>
<path d="M0 0 C0.66 0.33 1.32 0.66 2 1 C-0.97 3.97 -3.94 6.94 -7 10 C-7 5.69032084 -4.83274712 4.10253255 -2 1 C-1.34 0.67 -0.68 0.34 0 0 Z " fill="#F5D26C" transform="translate(956,156)"/>
<path d="M0 0 C2.97246802 2.54782974 4.41535288 5.45340883 6 9 C6 9.66 6 10.32 6 11 C5.34 11 4.68 11 4 11 C0.72962401 7.72962401 0.43143987 4.4869746 0 0 Z " fill="#8391B7" transform="translate(567,812)"/>
<path d="M0 0 C0.66 0.33 1.32 0.66 2 1 C1.01 2.485 1.01 2.485 0 4 C-0.66 4 -1.32 4 -2 4 C-2 4.66 -2 5.32 -2 6 C-4 7.625 -4 7.625 -6 9 C-6.66 8.67 -7.32 8.34 -8 8 C-6.625 6 -6.625 6 -5 4 C-4.34 4 -3.68 4 -3 4 C-3 3.34 -3 2.68 -3 2 C-2.01 1.34 -1.02 0.68 0 0 Z " fill="#8E9DCF" transform="translate(616,276)"/>
<path d="M0 0 C3.08089673 2.77280706 4.68775452 5.06326356 6 9 C3.5625 7.875 3.5625 7.875 1 6 C0.1875 2.8125 0.1875 2.8125 0 0 Z " fill="#8C9AC7" transform="translate(551,787)"/>
<path d="M0 0 C1.32 0 2.64 0 4 0 C4 0.66 4 1.32 4 2 C4.598125 2.103125 5.19625 2.20625 5.8125 2.3125 C8.28243264 3.08876455 9.32251235 4.07088921 11 6 C6.48986609 5.46939601 3.61621781 3.69113883 0 1 C0 0.67 0 0.34 0 0 Z " fill="#98A1C5" transform="translate(395,1450)"/>
<path d="M0 0 C2.61500768 2.36595933 4.38999603 4.86049226 6 8 C5.67 8.66 5.34 9.32 5 10 C2.9754262 8.06745228 1.57894208 6.36841312 0 4 C0 2.68 0 1.36 0 0 Z " fill="#7D8BB3" transform="translate(245,718)"/>
<path d="M0 0 C0.66 0 1.32 0 2 0 C1.71640113 1.4391134 1.42278601 2.87625518 1.125 4.3125 C0.88136719 5.51326172 0.88136719 5.51326172 0.6328125 6.73828125 C0 9 0 9 -2 12 C-1.85904936 10.3745692 -1.71207913 8.74965949 -1.5625 7.125 C-1.48128906 6.22007813 -1.40007813 5.31515625 -1.31640625 4.3828125 C-1 2 -1 2 0 0 Z " fill="#6C7DB0" transform="translate(585,1024)"/>
<path d="M0 0 C0.66 0 1.32 0 2 0 C0.7874262 3.72433382 -0.50859979 7.37802806 -2 11 C-2.95465783 8.83032311 -3.14401212 7.43671207 -2.3984375 5.17578125 C-1.64129615 3.4315257 -0.82390802 1.71372869 0 0 Z " fill="#6D7CAC" transform="translate(633,449)"/>
<path d="M0 0 C1 3 1 3 0.22265625 5.04296875 C-0.16019531 5.75066406 -0.54304687 6.45835937 -0.9375 7.1875 C-1.31777344 7.90292969 -1.69804687 8.61835938 -2.08984375 9.35546875 C-2.54037109 10.16951172 -2.54037109 10.16951172 -3 11 C-3.33 11 -3.66 11 -4 11 C-4 9.35 -4 7.7 -4 6 C-3.34 6 -2.68 6 -2 6 C-1.855625 5.195625 -1.71125 4.39125 -1.5625 3.5625 C-1 1 -1 1 0 0 Z " fill="#6F7CA6" transform="translate(248,253)"/>
<path d="M0 0 C1.74627478 2.61941217 2.38722388 4.03824877 3 7 C3.66 7 4.32 7 5 7 C5 8.32 5 9.64 5 11 C4.34 11 3.68 11 3 11 C0 4.5 0 4.5 0 0 Z " fill="#6A82C7" transform="translate(583,849)"/>
<path d="M0 0 C3.74525799 3.74525799 3.68909949 7.98270909 4 13 C1.12420019 8.68630028 0 5.19265239 0 0 Z " fill="#A2A9CA" transform="translate(430,578)"/>
<path d="M0 0 C0.66 0 1.32 0 2 0 C0.84414715 3.91211733 -0.35534962 6.8745041 -3 10 C-2.25 3.375 -2.25 3.375 0 0 Z " fill="#6C7EAF" transform="translate(654,407)"/>
<path d="M0 0 C0.66 0.66 1.32 1.32 2 2 C0.68 4.64 -0.64 7.28 -2 10 C-3.19156292 5.23374833 -2.3415946 4.12120649 0 0 Z " fill="#A5AAC0" transform="translate(280,187)"/>
<path d="M0 0 C1.32 0 2.64 0 4 0 C4.33 0.66 4.66 1.32 5 2 C7.01669827 3.13350534 7.01669827 3.13350534 9 4 C9 4.66 9 5.32 9 6 C5.06326356 4.68775452 2.77280706 3.08089673 0 0 Z " fill="#7C8BB7" transform="translate(406,188)"/>
<path d="M0 0 C3.0916909 2.52956528 3.90931332 5.22454612 5 9 C4.34 9 3.68 9 3 9 C0 2.25 0 2.25 0 0 Z " fill="#7F87A8" transform="translate(470,684)"/>
<path d="M0 0 C0.66 0 1.32 0 2 0 C1.5020163 3.73487777 1.12508244 5.81237635 -1 9 C-1.125 2.25 -1.125 2.25 0 0 Z " fill="#7285B9" transform="translate(605,515)"/>
<path d="M0 0 C0 4.38968456 -2.12805101 5.76905739 -5 9 C-5.33 8.34 -5.66 7.68 -6 7 C-4.02 4.69 -2.04 2.38 0 0 Z " fill="#717CA1" transform="translate(724,304)"/>
</svg>
